<svg width="337" height="327" viewBox="0 0 337 327" fill="none" xmlns="http://www.w3.org/2000/svg">
<path d="M14.5752 85.1574L56.0126 85.1574L56.0126 126.595L85.1573 126.595L85.1573 85.1574H126.595L126.595 56.0127H85.1573L85.1573 14.5753L56.0097 14.5723L56.0097 56.0098H14.5723L14.5752 85.1574Z" fill="#F05457"/>
<path d="M337 195C337 122.093 277.907 63 205 63C132.093 63 73 122.093 73 195C73 267.907 132.093 327 205 327C277.907 327 337 267.896 337 195ZM124.751 195C124.751 150.677 160.677 114.751 205 114.751C249.323 114.751 285.249 150.677 285.249 195C285.249 239.323 249.323 275.259 205 275.259C160.677 275.259 124.751 239.323 124.751 195Z" fill="#E9ACCE"/>
</svg>
