<svg width="31" height="31" viewBox="0 0 31 31" fill="none" xmlns="http://www.w3.org/2000/svg">
<path d="M30.5388 6.37702C29.4602 6.85493 28.3016 7.17785 27.0836 7.32381C28.3404 6.57179 29.2806 5.3882 29.7289 3.99389C28.5481 4.69525 27.2558 5.18894 25.9082 5.45348C25.0019 4.48584 23.8015 3.84448 22.4934 3.62896C21.1853 3.41345 19.8426 3.63583 18.6738 4.26159C17.5051 4.88736 16.5756 5.88148 16.0297 7.08963C15.4838 8.29778 15.3521 9.65236 15.6549 10.9431C13.2623 10.8229 10.9218 10.2011 8.78508 9.11781C6.64841 8.03456 4.76337 6.51414 3.25233 4.65523C2.73566 5.54648 2.43858 6.57981 2.43858 7.68031C2.438 8.67101 2.68197 9.64654 3.14884 10.5203C3.61571 11.3941 4.29104 12.1392 5.11491 12.6894C4.15944 12.659 3.22504 12.4008 2.3895 11.9364V12.0139C2.3894 13.4033 2.87004 14.7501 3.74986 15.8256C4.62968 16.901 5.85448 17.639 7.21645 17.9142C6.33009 18.1541 5.40081 18.1894 4.49879 18.0175C4.88305 19.2131 5.63157 20.2586 6.63955 21.0076C7.64753 21.7567 8.86451 22.1718 10.1201 22.1948C7.98866 23.868 5.35631 24.7756 2.64654 24.7716C2.16653 24.7718 1.68693 24.7437 1.21021 24.6877C3.96078 26.4562 7.16264 27.3948 10.4327 27.3911C21.5023 27.3911 27.5537 18.2229 27.5537 10.2714C27.5537 10.0131 27.5473 9.75214 27.5357 9.49381C28.7127 8.64257 29.7288 7.58847 30.5362 6.38089L30.5388 6.37702Z" fill="white"/>
</svg>
