<svg width="269" height="124" viewBox="0 0 269 124" fill="none" xmlns="http://www.w3.org/2000/svg">
<g clip-path="url(#clip0)">
<path d="M208.517 -0.000164032L208.517 60.1343L269 60.1343L269 -0.000166676L208.517 -0.000164032ZM238.758 49.1985C228.131 49.1985 219.514 40.6337 219.514 30.0646C219.514 19.4979 228.131 10.9331 238.758 10.9331C249.386 10.9331 258.003 19.4979 258.003 30.0646C258.001 40.6337 249.386 49.1985 238.758 49.1985Z" fill="#1AA781"/>
<path d="M30.2414 -0.000165354C13.5383 -0.000164624 -2.04019e-06 13.4602 -1.31428e-06 30.0671C-5.88372e-07 46.6739 13.5383 60.1343 30.2414 60.1343C46.9444 60.1343 60.4827 46.6739 60.4827 30.0671C60.4827 13.4602 46.9419 -0.000166084 30.2414 -0.000165354ZM30.2414 48.3462C20.087 48.3462 11.8563 40.163 11.8563 30.0671C11.8563 19.9711 20.087 11.7879 30.2414 11.7879C40.3957 11.7879 48.6289 19.9711 48.6289 30.0671C48.6289 40.163 40.3957 48.3462 30.2414 48.3462Z" fill="#E9ACCE"/>
<path d="M94.5143 -0.000172983L64.2729 60.1343L124.756 60.1343L94.5143 -0.000172983Z" fill="#F8ED3F"/>
<path d="M132.264 63.8656L132.264 124C148.967 124 162.505 110.54 162.505 93.9328C162.505 77.3284 148.964 63.8656 132.264 63.8656Z" fill="#F8ED3F"/>
<path d="M200.892 -0.000172983L200.892 60.1343C184.189 60.1343 170.651 46.6739 170.651 30.067C170.651 13.4602 184.189 -0.000172253 200.892 -0.000172983Z" fill="#F8ED3F"/>
<path d="M170.651 63.8656L170.651 124C187.354 124 200.892 110.54 200.892 93.9328C200.892 77.3284 187.352 63.8656 170.651 63.8656Z" fill="#F8ED3F"/>
<path d="M132.264 -0.000156403L132.264 60.1343C148.967 60.1343 162.505 46.6739 162.505 30.0671C162.505 13.4602 148.964 -0.000157133 132.264 -0.000156403Z" fill="#F8ED3F"/>
<path d="M269 93.9328L208.517 63.8656L208.517 124L269 93.9328Z" fill="#E9ACCE"/>
<path d="M35.1926 63.8656L35.1926 124L50.9288 124L50.9288 63.8656L35.1926 63.8656Z" fill="#59C6D2"/>
<path d="M10.0874 63.8656L10.0874 124L25.8236 124L25.8236 63.8656L10.0874 63.8656Z" fill="#59C6D2"/>
<path d="M124.489 111.429L106.892 93.9327L124.489 76.4364L112.112 64.1306L94.5145 81.6269L76.9169 64.1306L64.5398 76.4365L82.1374 93.9327L64.5398 111.429L76.9169 123.737L94.5145 106.241L112.112 123.737L124.489 111.429Z" fill="#F05457"/>
</g>
<defs>
<clipPath id="clip0">
<rect width="124" height="269" fill="white" transform="translate(0 124) rotate(-90)"/>
</clipPath>
</defs>
</svg>
