<svg width="31" height="31" viewBox="0 0 31 31" fill="none" xmlns="http://www.w3.org/2000/svg">
<path d="M25.8333 3.87488H5.16667C4.8241 3.87488 4.49555 4.01096 4.25332 4.2532C4.01109 4.49543 3.875 4.82397 3.875 5.16654V25.8332C3.875 26.1758 4.01109 26.5043 4.25332 26.7466C4.49555 26.9888 4.8241 27.1249 5.16667 27.1249H16.2944V18.1349H13.2745V14.6151H16.2944V12.0318C16.2944 9.02863 18.1285 7.39209 20.8152 7.39209C21.7181 7.3895 22.6222 7.436 23.5212 7.53029V10.6561H21.6677C20.2107 10.6561 19.9265 11.351 19.9265 12.3676V14.6086H23.4102L22.9581 18.1284H19.9253V27.1249H25.8333C26.1759 27.1249 26.5044 26.9888 26.7467 26.7466C26.9889 26.5043 27.125 26.1758 27.125 25.8332V5.16654C27.125 4.82397 26.9889 4.49543 26.7467 4.2532C26.5044 4.01096 26.1759 3.87488 25.8333 3.87488Z" fill="white"/>
</svg>
