<svg width="163" height="278" viewBox="0 0 163 278" fill="none" xmlns="http://www.w3.org/2000/svg">
<path d="M19.326 44.9086C19.326 20.1045 39.4306 0 64.2347 0C89.0388 0 109.143 20.1045 109.143 44.9086C109.143 69.7127 89.0388 89.8173 64.2347 89.8173C39.4306 89.8173 19.326 69.709 19.326 44.9086ZM91.5366 44.9086C91.5366 29.8293 79.314 17.6067 64.2347 17.6067C49.1553 17.6067 36.9328 29.8293 36.9328 44.9086C36.9328 59.988 49.1553 72.2142 64.2347 72.2142C79.314 72.2142 91.5366 59.988 91.5366 44.9086Z" fill="#E9ACCE"/>
<path d="M125.29 26.842L250.58 277.422L-4.57764e-05 277.422L125.29 26.842Z" fill="#F8ED3F"/>
</svg>
