<svg width="31" height="31" viewBox="0 0 31 31" fill="none" xmlns="http://www.w3.org/2000/svg">
<path fill-rule="evenodd" clip-rule="evenodd" d="M9.64237 1.37688C11.1575 1.30713 11.6406 1.29163 15.5001 1.29163C19.3596 1.29163 19.8427 1.30842 21.3565 1.37688C22.8703 1.44533 23.9037 1.68688 24.8078 2.03692C25.7546 2.39471 26.6136 2.954 27.324 3.67733C28.0473 4.38646 28.6053 5.24413 28.9618 6.19221C29.3132 7.09638 29.5534 8.12971 29.6232 9.64096C29.6929 11.1587 29.7084 11.6417 29.7084 15.5C29.7084 19.3595 29.6916 19.8425 29.6232 21.3577C29.5547 22.8689 29.3132 23.9022 28.9618 24.8064C28.6053 25.7546 28.0464 26.6137 27.324 27.3239C26.6136 28.0472 25.7546 28.6052 24.8078 28.9617C23.9037 29.313 22.8703 29.5533 21.3591 29.623C19.8427 29.6928 19.3596 29.7083 15.5001 29.7083C11.6406 29.7083 11.1575 29.6915 9.64237 29.623C8.13112 29.5546 7.09779 29.313 6.19362 28.9617C5.24544 28.6052 4.38635 28.0462 3.67616 27.3239C2.95332 26.6143 2.39395 25.7556 2.03704 24.8077C1.687 23.9035 1.44675 22.8702 1.377 21.359C1.30725 19.8412 1.29175 19.3582 1.29175 15.5C1.29175 11.6405 1.30854 11.1574 1.377 9.64354C1.44546 8.12971 1.687 7.09638 2.03704 6.19221C2.39447 5.24423 2.95428 4.38557 3.67746 3.67604C4.38663 2.95336 5.24486 2.39399 6.19233 2.03692C7.0965 1.68688 8.12983 1.44663 9.64108 1.37688H9.64237ZM21.2415 3.93438C19.7432 3.86592 19.2937 3.85171 15.5001 3.85171C11.7065 3.85171 11.257 3.86592 9.75862 3.93438C8.37266 3.99767 7.62092 4.22888 7.11975 4.42392C6.45712 4.68225 5.98308 4.98838 5.48579 5.48567C5.01439 5.94428 4.65161 6.50257 4.42404 7.11963C4.229 7.62079 3.99779 8.37254 3.9345 9.7585C3.86604 11.2568 3.85183 11.7063 3.85183 15.5C3.85183 19.2936 3.86604 19.7431 3.9345 21.2414C3.99779 22.6274 4.229 23.3791 4.42404 23.8803C4.65137 24.4964 5.01433 25.0557 5.48579 25.5142C5.94433 25.9857 6.50362 26.3487 7.11975 26.576C7.62092 26.771 8.37266 27.0022 9.75862 27.0655C11.257 27.134 11.7052 27.1482 15.5001 27.1482C19.295 27.1482 19.7432 27.134 21.2415 27.0655C22.6275 27.0022 23.3792 26.771 23.8804 26.576C24.543 26.3177 25.0171 26.0115 25.5144 25.5142C25.9858 25.0557 26.3488 24.4964 26.5761 23.8803C26.7712 23.3791 27.0024 22.6274 27.0657 21.2414C27.1341 19.7431 27.1483 19.2936 27.1483 15.5C27.1483 11.7063 27.1341 11.2568 27.0657 9.7585C27.0024 8.37254 26.7712 7.62079 26.5761 7.11963C26.3178 6.457 26.0117 5.98296 25.5144 5.48567C25.0557 5.0143 24.4974 4.65152 23.8804 4.42392C23.3792 4.22888 22.6275 3.99767 21.2415 3.93438ZM13.6853 19.88C14.6988 20.3019 15.8274 20.3588 16.8782 20.0411C17.929 19.7234 18.837 19.0506 19.4469 18.1379C20.0569 17.2251 20.331 16.1288 20.2225 15.0364C20.114 13.9439 19.6295 12.923 18.852 12.1481C18.3563 11.6527 17.7569 11.2734 17.097 11.0374C16.4371 10.8015 15.7331 10.7148 15.0357 10.7836C14.3383 10.8524 13.6648 11.0749 13.0637 11.4353C12.4627 11.7956 11.949 12.2847 11.5596 12.8673C11.1702 13.45 10.9149 14.1118 10.812 14.805C10.7091 15.4982 10.7612 16.2056 10.9644 16.8762C11.1677 17.5469 11.5172 18.1642 11.9877 18.6836C12.4582 19.2029 13.0379 19.6116 13.6853 19.88ZM10.336 10.3359C11.0142 9.65772 11.8192 9.11977 12.7053 8.75276C13.5914 8.38574 14.541 8.19684 15.5001 8.19684C16.4591 8.19684 17.4088 8.38574 18.2949 8.75276C19.1809 9.11977 19.986 9.65772 20.6642 10.3359C21.3423 11.014 21.8803 11.8191 22.2473 12.7052C22.6143 13.5912 22.8032 14.5409 22.8032 15.5C22.8032 16.459 22.6143 17.4087 22.2473 18.2947C21.8803 19.1808 21.3423 19.9859 20.6642 20.664C19.2946 22.0336 17.437 22.8031 15.5001 22.8031C13.5632 22.8031 11.7056 22.0336 10.336 20.664C8.9664 19.2944 8.19697 17.4369 8.19697 15.5C8.19697 13.5631 8.9664 11.7055 10.336 10.3359ZM24.4229 9.28446C24.591 9.12593 24.7255 8.9353 24.8186 8.72384C24.9116 8.51239 24.9613 8.28441 24.9647 8.05341C24.968 7.82241 24.925 7.59308 24.8382 7.379C24.7513 7.16493 24.6224 6.97045 24.459 6.80709C24.2957 6.64373 24.1012 6.51481 23.8871 6.42796C23.673 6.34111 23.4437 6.29809 23.2127 6.30146C22.9817 6.30483 22.7537 6.35451 22.5423 6.44757C22.3308 6.54062 22.1402 6.67516 21.9817 6.84321C21.6734 7.17004 21.5046 7.60416 21.5111 8.05341C21.5177 8.50266 21.699 8.93168 22.0167 9.24938C22.3344 9.56708 22.7635 9.74846 23.2127 9.75501C23.662 9.76156 24.0961 9.59277 24.4229 9.28446Z" fill="white"/>
</svg>
