<svg width="270" height="189" viewBox="0 0 270 189" fill="none" xmlns="http://www.w3.org/2000/svg">
<path d="M27.1257 78.466H35.5881L22.5993 43.1365H13.5957L0.459229 78.466H8.62645L11.1357 71.2905H24.6165L27.1257 78.466ZM17.9745 51.9066L22.1565 64.1149H13.6941L17.9745 51.9066Z" fill="white"/>
<path d="M54.8942 53.7005C54.4022 53.551 53.6642 53.4513 52.9262 53.4513C50.9582 53.4513 47.8586 54.2486 46.5794 57.0391V53.7005H39.347V78.466H46.8254V67.6529C46.8254 62.7197 49.5314 60.9258 52.5326 60.9258C53.2706 60.9258 54.0578 60.9757 54.8942 61.175V53.7005Z" fill="white"/>
<path d="M69.2018 46.4751H62.5106V49.6642C62.5106 51.9564 61.2806 53.7005 58.7222 53.7005H57.4922V60.3279H61.8218V70.9417C61.8218 75.8748 64.9214 78.9145 69.989 78.9145C72.3506 78.9145 73.5807 78.3663 73.8758 78.2169V71.9383C73.433 72.0379 72.695 72.1874 71.9078 72.1874C70.2842 72.1874 69.2018 71.6393 69.2018 69.5963V60.3279H73.9743V53.7005H69.2018V46.4751Z" fill="white"/>
<path d="M86.7524 78.466V53.7005H79.274V78.466H86.7524ZM78.6344 46.1263C78.6344 48.568 80.6024 50.5612 82.964 50.5612C85.424 50.5612 87.3921 48.568 87.3921 46.1263C87.3921 43.6846 85.424 41.6914 82.964 41.6914C80.6024 41.6914 78.6344 43.6846 78.6344 46.1263Z" fill="white"/>
<path d="M91.2866 71.44C91.4834 74.1806 93.9434 79.2135 101.619 79.2135C108.162 79.2135 111.36 75.0776 111.36 70.842C111.36 67.2044 108.9 64.1149 103.833 63.0685L100.585 62.4207C99.503 62.2214 98.6666 61.6234 98.6666 60.577C98.6666 59.2814 99.8966 58.4343 101.323 58.4343C103.587 58.4343 104.62 59.8296 104.817 61.474L111.016 60.3279C110.77 57.4377 108.31 52.953 101.225 52.953C95.7638 52.953 91.8278 56.6404 91.8278 61.175C91.8278 64.6631 93.8942 67.6529 99.1094 68.799L101.914 69.4468C103.734 69.8454 104.325 70.5929 104.325 71.4898C104.325 72.5861 103.39 73.6325 101.471 73.6325C98.9126 73.6325 97.7318 71.9881 97.6334 70.2939L91.2866 71.44Z" fill="white"/>
<path d="M125.177 46.4751H118.485V49.6642C118.485 51.9564 117.255 53.7005 114.697 53.7005H113.467V60.3279H117.797V70.9417C117.797 75.8748 120.896 78.9145 125.964 78.9145C128.325 78.9145 129.555 78.3663 129.851 78.2169V71.9383C129.408 72.0379 128.67 72.1874 127.883 72.1874C126.259 72.1874 125.177 71.6393 125.177 69.5963V60.3279H129.949V53.7005H125.177V46.4751Z" fill="white"/>
<path d="M256.684 68.559L256.684 58.8311L214.439 58.8311L214.439 68.559L256.684 68.559Z" fill="white"/>
<path d="M117.092 119.293L103.83 106.567L115.691 95.1848L109.667 89.4043L97.806 100.786L85.945 89.4043L79.9212 95.1848L91.7821 106.567L78.5203 119.293L84.5441 125.073L97.806 112.347L111.068 125.073L117.092 119.293Z" fill="white"/>
<path d="M26.5868 142.039C25.8011 138.214 22.6582 133.296 14.801 133.296C8.36796 133.296 3.30989 138.264 3.30989 143.778C3.30989 149.043 6.84563 152.322 11.8055 153.415L16.7653 154.508C20.252 155.253 21.9707 157.439 21.9707 159.972C21.9707 163.052 19.6136 165.586 14.801 165.586C9.54653 165.586 6.79652 161.959 6.45277 158.035L1.83667 159.525C2.47507 164.543 6.45277 170.007 14.8501 170.007C22.2654 170.007 26.8815 165.039 26.8815 159.575C26.8815 154.657 23.6404 150.981 17.8457 149.689L12.6403 148.547C9.69386 147.901 8.17153 145.964 8.17153 143.43C8.17153 140.151 10.9707 137.568 14.8992 137.568C19.7609 137.568 21.8725 141.046 22.2654 143.579L26.5868 142.039Z" fill="white"/>
<path d="M47.3289 166.381C47.3289 167.374 47.4272 168.715 47.5254 169.262H51.945C51.8468 168.417 51.6995 166.728 51.6995 164.841V145.367H47.0834V159.774C47.0834 163.4 45.2173 165.884 41.4852 165.884C37.6057 165.884 36.1325 163.003 36.1325 159.724V145.367H31.5164V160.419C31.5164 165.834 34.8557 170.007 40.3557 170.007C43.1057 170.007 46.0522 168.864 47.3289 166.381Z" fill="white"/>
<path d="M64.1436 169.262V154.856C64.1436 151.279 66.3535 148.795 69.6437 148.795C73.1794 148.795 74.6526 151.18 74.6526 154.26V169.262H79.2687V154.806C79.2687 151.378 81.4786 148.795 84.7196 148.795C88.2063 148.795 89.7286 151.13 89.7286 154.26V169.262H94.2956V153.763C94.2956 147.504 90.2688 144.672 86.1438 144.672C83.1482 144.672 80.1035 145.765 78.2375 149.193C76.9607 146.113 74.1124 144.672 71.166 144.672C68.416 144.672 65.4695 145.914 63.9963 148.547V145.367H59.5766V169.262H64.1436Z" fill="white"/>
<path d="M106.249 169.262V154.856C106.249 151.279 108.459 148.795 111.749 148.795C115.285 148.795 116.758 151.18 116.758 154.26V169.262H121.375V154.806C121.375 151.378 123.584 148.795 126.825 148.795C130.312 148.795 131.834 151.13 131.834 154.26V169.262H136.401V153.763C136.401 147.504 132.375 144.672 128.25 144.672C125.254 144.672 122.209 145.765 120.343 149.193C119.066 146.113 116.218 144.672 113.272 144.672C110.522 144.672 107.575 145.914 106.102 148.547V145.367H101.682V169.262H106.249Z" fill="white"/>
<path d="M148.355 169.262V145.367H143.788V169.262H148.355ZM142.757 136.326C142.757 138.164 144.23 139.655 146.047 139.655C147.913 139.655 149.386 138.164 149.386 136.326C149.386 134.439 147.913 132.948 146.047 132.948C144.23 132.948 142.757 134.439 142.757 136.326Z" fill="white"/>
<path d="M162.396 137.817H158.173V141.691C158.173 143.778 157.093 145.367 154.539 145.367H153.262V149.59H157.78V162.705C157.78 167.026 160.334 169.51 164.361 169.51C165.932 169.51 167.111 169.212 167.504 169.063V165.089C167.111 165.188 166.276 165.288 165.687 165.288C163.28 165.288 162.396 164.195 162.396 162.009V149.59H167.504V145.367H162.396V137.817Z" fill="white"/>
<path d="M173.174 166.083C173.174 168.02 174.647 169.51 176.562 169.51C178.478 169.51 180 168.02 180 166.083C180 164.145 178.478 162.605 176.562 162.605C174.647 162.605 173.174 164.145 173.174 166.083Z" fill="white"/>
<path d="M132.245 89.6842V124.794H144.408C150.783 124.794 155.148 120.783 155.148 115.237C155.148 111.325 152.843 107.759 148.871 106.769C151.911 105.63 154.069 102.956 154.069 99.1921C154.069 93.6458 150.195 89.6842 143.574 89.6842H132.245ZM137.051 105.036V93.943H142.838C146.811 93.943 149.214 96.1219 149.214 99.4397C149.214 102.708 146.909 105.036 143.034 105.036H137.051ZM137.051 120.535V109.195H143.917C148.135 109.195 150.244 111.572 150.244 114.94C150.244 118.356 147.595 120.535 143.721 120.535H137.051Z" fill="white"/>
<path d="M174.112 100.727C173.866 100.678 173.229 100.579 172.591 100.579C170.188 100.579 167.246 101.47 165.529 105.135V100.975H161.017V124.794H165.627V112.86C165.627 107.611 168.227 105.531 172.101 105.531C172.738 105.531 173.425 105.58 174.112 105.679V100.727Z" fill="white"/>
<path d="M177.554 118.406C177.554 122.17 180.643 125.537 185.45 125.537C189.667 125.537 192.021 123.259 193.051 121.575C193.051 123.309 193.198 124.2 193.296 124.794H197.808C197.71 124.2 197.514 122.962 197.514 120.882V108.948C197.514 104.293 194.768 100.232 187.706 100.232C182.605 100.232 178.535 103.401 178.044 107.957L182.458 108.997C182.752 106.224 184.567 104.194 187.804 104.194C191.384 104.194 192.904 106.125 192.904 108.452C192.904 109.294 192.512 110.037 191.09 110.235L184.714 111.176C180.643 111.77 177.554 114.147 177.554 118.406ZM186.087 121.625C183.733 121.625 182.262 119.941 182.262 118.158C182.262 116.029 183.733 114.89 185.695 114.593L192.904 113.504V114.593C192.904 119.793 189.863 121.625 186.087 121.625Z" fill="white"/>
<path d="M209.306 111.027C209.306 107.412 211.169 104.491 214.798 104.491C218.918 104.491 220.291 107.165 220.291 110.483V124.794H224.901V109.69C224.901 104.392 222.106 100.282 216.466 100.282C213.72 100.282 210.924 101.421 209.208 104.392V100.975H204.696V124.794H209.306V111.027Z" fill="white"/>
<path d="M234.981 112.81C234.981 107.908 237.727 104.441 241.945 104.441C246.162 104.441 248.712 107.809 248.712 112.711C248.712 117.614 246.113 121.328 241.896 121.328C237.482 121.328 234.981 117.713 234.981 112.81ZM248.762 121.575C248.762 123.011 248.909 124.249 249.007 124.794H253.47C253.421 124.398 253.224 122.665 253.224 120.387V88.9414H248.663V104.342C247.879 102.411 245.623 100.331 241.454 100.331C234.784 100.331 230.273 106.075 230.273 112.81C230.273 119.892 234.539 125.438 241.454 125.438C245.132 125.438 247.634 123.457 248.762 121.179V121.575Z" fill="white"/>
<path d="M10.3865 8.38276C13.6554 8.38276 15.5504 10.1776 15.5504 12.6007C15.5504 14.2161 14.4608 15.5622 13.1343 15.9661C14.6503 16.2802 16.0716 17.6263 16.0716 19.6456C16.0716 22.2033 13.987 24.0879 10.8602 24.0879H4.13281V8.33789L10.3865 8.38276ZM9.81794 14.6648C11.0971 14.6648 11.9499 14.0366 11.9499 12.9597C11.9499 11.9276 11.2392 11.2546 9.77057 11.2546H7.78077V14.6648H9.81794ZM10.1496 21.261C11.5709 21.261 12.4236 20.543 12.4236 19.4212C12.4236 18.3443 11.5709 17.5815 10.1496 17.5815H7.82815V21.261H10.1496Z" fill="white"/>
<path d="M31.1364 18.3827H29.8254V24.088H26.1736V8.80127H32.6814C35.9119 8.80127 38.0187 10.8482 38.0187 13.592C38.0187 15.6389 36.8014 17.2504 34.7882 17.9036L38.1123 24.088H34.0859L31.1364 18.3827ZM31.9791 15.4647C33.4773 15.4647 34.2732 14.6808 34.2732 13.592C34.2732 12.4596 33.4773 11.7193 31.9791 11.7193H29.8254V15.4212L31.9791 15.4647Z" fill="white"/>
<path d="M51.8878 8.80127H48.2144V24.088H51.8878V8.80127Z" fill="white"/>
<path d="M72.8102 24.088L66.0896 14.0275V24.088H62.4492V8.80127H66.883L73.0436 18.0779V8.80127H76.6839V24.088H72.8102Z" fill="white"/>
<path d="M99.3789 24.241L99.1466 22.6463C98.4499 23.6209 96.9171 24.5511 94.5946 24.5511C90.089 24.5511 86.3267 21.3616 86.3267 16.4445C86.3267 11.5717 90.2284 8.33789 94.8269 8.33789C99.4718 8.33789 101.655 10.9515 102.352 13.1221L98.8679 14.2739C98.6357 13.2993 97.5209 11.5717 94.8269 11.5717C92.6438 11.5717 90.0426 12.9892 90.0426 16.4445C90.0426 19.6783 92.2722 21.3616 94.9198 21.3616C97.6138 21.3616 98.7286 19.6783 98.9608 18.8366H94.0837V15.9129H102.398V24.241H99.3789Z" fill="white"/>
<path d="M50.0276 0C51.3058 0 52.3472 0.955423 52.3472 2.08456C52.3472 3.25712 51.3058 4.16912 50.0276 4.16912C48.7968 4.16912 47.7554 3.21369 47.7554 2.08456C47.7554 0.955423 48.7968 0 50.0276 0Z" fill="white"/>
<path d="M50.0276 28.2573C51.3058 28.2573 52.3472 29.3189 52.3472 30.5735C52.3472 31.8764 51.3058 32.8897 50.0276 32.8897C48.7968 32.8897 47.7554 31.8281 47.7554 30.5735C47.8027 29.3189 48.7968 28.2573 50.0276 28.2573Z" fill="white"/>
</svg>
