<svg width="142" height="46" viewBox="0 0 142 46" fill="none" xmlns="http://www.w3.org/2000/svg">
<g clip-path="url(#clip0)">
<path fill-rule="evenodd" clip-rule="evenodd" d="M132.948 36.7997H134.259V32.9607H136.504V36.495H137.816V32.9607H140.218V36.7614H141.529V31.688H132.948V36.7997Z" fill="white"/>
<path fill-rule="evenodd" clip-rule="evenodd" d="M132.948 41.2469V42.5617H136.24L141.531 46.0002V44.3864L137.626 41.9004L141.531 39.4299V37.8218L136.229 41.2469H132.948Z" fill="white"/>
<path fill-rule="evenodd" clip-rule="evenodd" d="M140.216 18.6278C140.216 18.9268 140.17 19.2353 140.076 19.5573C139.992 19.8408 139.844 20.1011 139.644 20.3183C139.45 20.5329 139.165 20.7323 138.767 20.8933C138.407 21.0428 137.904 21.1348 137.251 21.1348H137.236C136.752 21.1488 136.27 21.066 135.819 20.8913C135.481 20.757 135.178 20.5473 134.933 20.278C134.708 20.0225 134.538 19.7229 134.435 19.3983C134.32 19.0449 134.262 18.6755 134.263 18.3038V16.6862H140.216V18.6278ZM132.948 15.333V18.3058C132.948 18.8271 133.028 19.3408 133.187 19.8276C133.348 20.3317 133.61 20.7917 133.958 21.1884C134.318 21.5986 134.783 21.9168 135.319 22.1448C135.882 22.3825 136.525 22.4898 137.239 22.4898C138.011 22.4879 138.675 22.3883 139.253 22.1525C139.791 21.9321 140.25 21.635 140.607 21.2421C140.943 20.8703 141.194 20.4294 141.334 19.9503C141.461 19.5273 141.527 19.0885 141.531 18.6469V15.333L132.948 15.333Z" fill="white"/>
<path fill-rule="evenodd" clip-rule="evenodd" d="M141.531 6.64502L136.229 10.0682H132.948V11.3811H136.24L141.531 14.8215V13.2058L137.626 10.7218L141.531 8.25119V6.64502Z" fill="white"/>
<path fill-rule="evenodd" clip-rule="evenodd" d="M141.531 23.5117H132.948V24.8611H139.295L132.963 29.2943V30.6666H141.491V29.3154H135.199L141.531 24.8821V23.5117Z" fill="white"/>
<path fill-rule="evenodd" clip-rule="evenodd" d="M133.461 5.95125C133.652 6.2905 133.913 6.58375 134.221 6.80033C134.393 6.92108 134.584 7.01117 134.783 7.07058C134.984 7.12808 135.193 7.15492 135.406 7.15492C135.624 7.15492 135.834 7.13383 136.035 7.084C136.237 7.03478 136.429 6.95044 136.602 6.83483V6.83292C136.904 6.62529 137.15 6.34611 137.318 6.02025C137.477 5.71358 137.595 5.37817 137.684 5.00442L137.785 4.54825L138.009 3.49792L138.174 2.73508C138.233 2.46675 138.313 2.23675 138.409 2.04125V2.03933C138.477 1.89592 138.578 1.77098 138.704 1.67517L138.706 1.67325L138.71 1.66942C138.756 1.63927 138.806 1.61602 138.859 1.60042C138.949 1.57633 139.043 1.56472 139.136 1.56592H139.14C139.261 1.56592 139.355 1.58125 139.435 1.60425C139.508 1.62342 139.573 1.656 139.619 1.6905H139.623C139.759 1.79017 139.871 1.9205 139.956 2.0815C140.055 2.26933 140.128 2.48975 140.174 2.74658C140.226 3.02258 140.251 3.29475 140.251 3.565V3.57075C140.251 3.91575 140.216 4.21858 140.157 4.485C140.111 4.70781 140.025 4.92028 139.902 5.11175V5.11367C139.797 5.26979 139.656 5.39805 139.491 5.48742C139.372 5.55121 139.244 5.59646 139.112 5.62158L139.11 6.97858C139.464 6.9345 139.793 6.83675 140.092 6.67192C140.436 6.48025 140.737 6.20808 140.955 5.87458C141.165 5.5545 141.317 5.1865 141.403 4.79167C141.489 4.40833 141.531 4.00008 141.531 3.56883C141.531 3.21233 141.499 2.85583 141.435 2.49742C141.371 2.12949 141.252 1.77341 141.081 1.44133C140.907 1.10014 140.654 0.805706 140.342 0.582667C140.169 0.459579 139.976 0.36749 139.772 0.3105C139.566 0.252435 139.354 0.224037 139.14 0.226167C138.926 0.226167 138.719 0.249167 138.52 0.306667C138.32 0.363842 138.132 0.456691 137.965 0.58075C137.669 0.803481 137.431 1.09399 137.27 1.42792C137.121 1.73458 137.006 2.07192 136.926 2.43225L136.83 2.87692L136.606 3.92342L136.504 4.39492L136.439 4.68625C136.388 4.9244 136.306 5.15498 136.196 5.37242V5.37433C136.13 5.50766 136.032 5.62183 135.909 5.70592L135.905 5.70783L135.903 5.70975C135.851 5.74248 135.795 5.76644 135.735 5.78067C135.628 5.80528 135.519 5.81687 135.409 5.81517H135.406C135.312 5.8159 135.218 5.80299 135.128 5.77683C135.06 5.75805 134.995 5.72827 134.937 5.68867L134.933 5.68675C134.78 5.57605 134.654 5.43266 134.563 5.267V5.26892V5.267C134.444 5.05307 134.36 4.82141 134.315 4.58083C134.189 3.94255 134.199 3.285 134.343 2.65075C134.414 2.34792 134.523 2.10833 134.659 1.91283C134.788 1.72981 134.962 1.58325 135.164 1.48733C135.344 1.40346 135.537 1.35466 135.735 1.34358V0C135.348 0.0146085 134.968 0.107862 134.619 0.274083C134.223 0.467189 133.883 0.757285 133.629 1.11742C133.38 1.47008 133.204 1.88025 133.101 2.33067C132.996 2.76575 132.948 3.2315 132.948 3.72408C132.948 4.10742 132.986 4.485 133.063 4.86067C133.139 5.25167 133.273 5.61967 133.461 5.95125Z" fill="white"/>
<path fill-rule="evenodd" clip-rule="evenodd" d="M88.3386 13.0967L91.6943 13.1005L94.579 10.2217L85.4922 10.2217V19.4217L88.3386 16.5103V13.0986V13.0967Z" fill="white"/>
<path fill-rule="evenodd" clip-rule="evenodd" d="M65.931 32.3956L56.6528 10.7334L48.1345 10.7334L63.1764 46.0001H68.8081L83.4729 10.7334L74.9374 10.7334L65.931 32.3956Z" fill="white"/>
<path fill-rule="evenodd" clip-rule="evenodd" d="M38.0374 10.7334L38.0374 46.0001H46.1153L46.1153 10.7334L38.0374 10.7334Z" fill="white"/>
<path fill-rule="evenodd" clip-rule="evenodd" d="M17.9686 32.3975L8.69233 10.7334L0.174072 10.7334L15.2141 46.0001H20.8457L35.5105 10.7334L26.9731 10.7334L17.9686 32.3975Z" fill="white"/>
<path fill-rule="evenodd" clip-rule="evenodd" d="M128.212 43.93H127.921V41.9098H127.909L127.105 43.93H126.939L126.135 41.9098H126.123V43.93H125.832V41.6434H126.301L127.032 43.4988L127.743 41.6434H128.212V43.93ZM125.43 41.8926H124.691V43.93H124.4V41.8926H123.661V41.6434H125.43V41.8926ZM121.512 32.1751L121.481 32.2728C121.092 33.4127 120.495 34.4701 119.72 35.3913C118.974 36.2691 118.097 36.938 116.956 37.4862C115.938 37.9692 114.699 38.2528 113.107 38.2567C111.51 38.2528 110.31 37.9692 109.349 37.4996C108.363 37.0345 107.5 36.3446 106.828 35.4852C106.085 34.5104 105.529 33.4063 105.187 32.2288C104.78 30.8784 104.577 29.4745 104.584 28.0638C104.586 26.7413 104.77 25.4284 105.143 24.0887C105.503 22.8313 106.024 21.7676 106.732 20.7997C107.391 19.918 108.197 19.2108 109.326 18.5917C110.272 18.0838 111.464 17.7713 113.108 17.7694C116.209 17.8154 118.064 18.6128 119.724 20.2803C121.215 21.8328 122.149 24.173 122.168 28.0715C122.168 29.5493 121.948 30.8928 121.512 32.1732V32.1751ZM121.931 0V12.2437C119.356 10.6816 116.303 9.96667 113.018 9.9705H112.907C110.415 9.97625 108.045 10.465 105.921 11.5134C103.908 12.4896 102.132 13.8933 100.716 15.6266C99.3361 17.3462 98.2878 19.3077 97.6243 21.4111C96.9355 23.5629 96.5892 25.8099 96.5983 28.0696C96.5983 30.4923 96.9429 32.8114 97.6645 34.9734C98.3862 37.1354 99.4696 39.0866 100.921 40.7407C102.373 42.3947 104.164 43.7165 106.171 44.6162C108.133 45.4978 110.283 45.9444 112.54 45.9943L112.557 46H113.055C116.309 45.9962 119.353 45.241 121.931 43.6348V45.6493H129.919V0L121.931 0Z" fill="white"/>
<path fill-rule="evenodd" clip-rule="evenodd" d="M91.733 43.1253L88.3774 43.1215L85.4907 46.0003H94.5775V36.8003L91.7311 39.7117V43.1234L91.733 43.1253Z" fill="white"/>
</g>
<defs>
<clipPath id="clip0">
<rect width="142" height="46" fill="white"/>
</clipPath>
</defs>
</svg>
