<svg width="138" height="49" viewBox="0 0 138 49" fill="none" xmlns="http://www.w3.org/2000/svg">
<path d="M8.59331 28.8564H3.79867L2.90559 31.5108H0L4.67117 18.436H7.87308L12.4928 31.5108H9.48639L8.59331 28.8564ZM4.70821 26.2019H7.71875L6.23098 21.6847L4.70821 26.2019Z" fill="white"/>
<path d="M19.0737 25.1129C18.7753 25.0392 18.4955 25.0219 18.2341 25.0219C17.1661 25.0219 16.2052 25.6855 16.2052 27.5115V31.5126H13.5444V22.3479H16.1167V23.584C16.5714 22.5518 17.6744 22.2568 18.3741 22.2568C18.6375 22.2568 18.8988 22.2937 19.0737 22.3479V25.1129Z" fill="white"/>
<path d="M24.4447 22.3483H26.1424V24.801H24.4447V28.2318C24.4447 28.9886 24.8295 29.1903 25.4078 29.1903C25.6876 29.1903 25.951 29.1361 26.1074 29.0992V31.4219C26.0025 31.4761 25.5642 31.6799 24.7246 31.6799C22.922 31.6799 21.819 30.5544 21.819 28.7284V24.801H20.2798V22.3483H20.7181C21.6276 22.3483 22.0659 21.702 22.0659 20.8541V19.6743H24.4447V22.3483Z" fill="white"/>
<path d="M29.0456 17.9048C29.9201 17.9048 30.6198 18.6421 30.6198 19.5464C30.6198 20.4508 29.9201 21.1881 29.0456 21.1881C28.206 21.1881 27.5063 20.4508 27.5063 19.5464C27.5063 18.6421 28.206 17.9048 29.0456 17.9048ZM27.7348 31.513V22.3483H30.3934V31.513H27.7348Z" fill="white"/>
<path d="M34.1549 28.488C34.1898 29.1148 34.6096 29.7242 35.5192 29.7242C36.2024 29.7242 36.5337 29.336 36.5337 28.9304C36.5337 28.5986 36.3238 28.321 35.6756 28.1736L34.6775 27.9329C32.8235 27.5078 32.0888 26.4018 32.0888 25.1115C32.0888 23.4329 33.4881 22.0688 35.4307 22.0688C37.9494 22.0688 38.826 23.7279 38.9125 24.797L36.7106 25.2242C36.6407 24.6148 36.2723 24.0987 35.4677 24.0987C34.9595 24.0987 34.5232 24.4131 34.5232 24.8924C34.5232 25.2806 34.8216 25.5018 35.2064 25.5755L36.3608 25.8163C38.1634 26.2044 39.038 27.3473 39.038 28.6941C39.038 30.262 37.9 31.7909 35.5727 31.7909C32.844 31.7909 31.9674 29.928 31.8975 28.9153L34.1549 28.488Z" fill="white"/>
<path d="M44.0058 22.3483H45.7035V24.801H44.0058V28.2318C44.0058 28.9886 44.3906 29.1903 44.9688 29.1903C45.2487 29.1903 45.5121 29.1361 45.6685 29.0992V31.4219C45.5635 31.4761 45.1252 31.6799 44.2856 31.6799C42.483 31.6799 41.38 30.5544 41.38 28.7284V24.801H39.8408V22.3483H40.2791C41.1887 22.3483 41.627 21.702 41.627 20.8541V19.6743H44.0058V22.3483Z" fill="white"/>
<path d="M72.6977 18.438C75.0601 18.438 76.4429 19.9127 76.4429 21.9794C76.4429 23.3803 75.6733 24.3757 74.5888 24.8008C76.0067 25.1695 76.8277 26.4967 76.8277 27.954C76.8277 30.0185 75.27 31.5127 72.9961 31.5127H68.6562V18.438H72.6977ZM72.5043 24.1545C73.8871 24.1545 74.7082 23.2871 74.7082 22.0705C74.7082 20.8343 73.8501 20.0233 72.4343 20.0233H70.3704V24.1545H72.5043ZM72.7492 29.9275C74.132 29.9275 75.0765 29.1164 75.0765 27.8434C75.0765 26.5899 74.3234 25.7051 72.8191 25.7051H70.3704V29.9275H72.7492Z" fill="white"/>
<path d="M83.2127 24.3953C82.9678 24.3585 82.7229 24.3411 82.4945 24.3411C81.1117 24.3411 80.1857 25.1153 80.1857 27.0693V31.5128H78.5415V22.6431H80.1507V24.1915C80.7639 22.8274 81.8134 22.4956 82.6694 22.4956C82.8978 22.4956 83.1242 22.5325 83.2127 22.5498V24.3953Z" fill="white"/>
<path d="M86.4496 26.4401L88.7235 26.0888C89.2317 26.0151 89.3717 25.7396 89.3717 25.4252C89.3717 24.5577 88.8284 23.8399 87.5526 23.8399C86.3982 23.8399 85.75 24.5968 85.645 25.629L84.0708 25.2409C84.2457 23.545 85.6985 22.3652 87.5176 22.3652C90.0363 22.3652 91.0179 23.8768 91.0179 25.6117V30.0552C91.0179 30.8294 91.0878 31.2914 91.1228 31.5126H89.5136C89.4787 31.2914 89.4272 30.9596 89.4272 30.3133C89.0589 30.94 88.2193 31.788 86.7151 31.788C85.0009 31.788 83.898 30.5345 83.898 29.1336C83.8938 27.5483 84.9968 26.6613 86.4496 26.4401ZM89.3717 27.7131V27.3076L86.7994 27.7131C86.0998 27.8237 85.5751 28.2488 85.5751 29.0403C85.5751 29.7039 86.0998 30.3307 86.9394 30.3307C88.2852 30.3328 89.3717 29.6497 89.3717 27.7131Z" fill="white"/>
<path d="M94.8126 31.5136H93.1685V22.6438H94.7776V23.9168C95.3909 22.8108 96.3868 22.3857 97.3663 22.3857C99.3789 22.3857 100.377 23.9168 100.377 25.8903V31.5136H98.7327V26.1852C98.7327 24.9491 98.243 23.9537 96.7737 23.9537C95.4794 23.9537 94.8147 25.0423 94.8147 26.3869V31.5136H94.8126Z" fill="white"/>
<path d="M108.546 30.1665C108.143 31.0145 107.252 31.7518 105.939 31.7518C103.471 31.7518 101.949 29.6873 101.949 27.0502C101.949 24.5432 103.558 22.4028 105.939 22.4028C107.427 22.4028 108.231 23.177 108.511 23.897V18.1631H110.139V29.8738C110.139 30.7217 110.209 31.368 110.225 31.5154H108.632C108.597 31.3116 108.544 30.8518 108.544 30.3162V30.1665H108.546ZM106.097 30.2229C107.601 30.2229 108.53 28.8393 108.53 27.0133C108.53 25.1873 107.62 23.9338 106.116 23.9338C104.612 23.9338 103.632 25.2242 103.632 27.0502C103.63 28.8762 104.523 30.2229 106.097 30.2229Z" fill="white"/>
<path d="M66.9717 44.7676L66.9717 41.1221L52.8532 41.1221L52.8532 44.7676L66.9717 44.7676Z" fill="white"/>
<path d="M78.9075 39.5963C78.8211 38.9869 78.3478 37.9547 76.8436 37.9547C75.8106 37.9547 75.1459 38.6378 75.1459 39.3556C75.1459 39.9823 75.5142 40.4443 76.3703 40.6091L78.033 40.9409C80.3953 41.4028 81.6197 43.0054 81.6197 44.8683C81.6197 46.9155 79.992 48.9995 77.035 48.9995C73.6046 48.9995 72.1354 46.6574 71.9604 44.8141L74.4977 44.1678C74.6027 45.3671 75.3723 46.4167 77.0699 46.4167C78.1544 46.4167 78.8191 45.8637 78.8191 45.0526C78.8191 44.389 78.3108 43.9097 77.4897 43.7428L75.7921 43.411C73.6931 42.9859 72.4152 41.5112 72.4152 39.5746C72.4152 37.1045 74.4792 35.3696 76.86 35.3696C79.957 35.3696 81.13 37.3236 81.3913 38.8546L78.9075 39.5963Z" fill="white"/>
<path d="M88.4433 47.8031C87.9885 48.5968 86.9905 48.9286 86.1159 48.9286C83.9985 48.9286 82.8091 47.3064 82.8091 45.3503V39.5601H85.4698V44.7605C85.4698 45.6453 85.9246 46.3457 86.8691 46.3457C87.7622 46.3457 88.3219 45.6995 88.3219 44.7778V39.5601H90.9826V47.0831C90.9826 47.9137 91.0526 48.5773 91.069 48.7247H88.5153C88.4783 48.5599 88.4433 48.0438 88.4433 47.8031Z" fill="white"/>
<path d="M92.7996 48.7243V39.5596H95.3368V40.6114C95.7751 39.8003 96.8946 39.2842 97.8391 39.2842C99.082 39.2842 99.973 39.8198 100.411 40.722C101.095 39.6897 101.934 39.2842 103.105 39.2842C104.749 39.2842 106.325 40.2991 106.325 42.7887V48.7265H103.753V43.4154C103.753 42.548 103.315 41.867 102.37 41.867C101.426 41.867 100.918 42.6239 100.918 43.435V48.7265H98.2939V43.4154C98.2939 42.548 97.8555 41.867 96.8946 41.867C95.9665 41.867 95.4603 42.6239 95.4603 43.4523V48.7265H92.7996V48.7243Z" fill="white"/>
<path d="M108.056 48.7243V39.5596H110.593V40.6114C111.032 39.8003 112.151 39.2842 113.096 39.2842C114.339 39.2842 115.23 39.8198 115.668 40.722C116.351 39.6897 117.191 39.2842 118.362 39.2842C120.006 39.2842 121.582 40.2991 121.582 42.7887V48.7265H119.01V43.4154C119.01 42.548 118.571 41.867 117.627 41.867C116.682 41.867 116.174 42.6239 116.174 43.435V48.7265H113.55V43.4154C113.55 42.548 113.112 41.867 112.151 41.867C111.223 41.867 110.717 42.6239 110.717 43.4523V48.7265H108.056V48.7243Z" fill="white"/>
<path d="M124.625 35.1162C125.5 35.1162 126.2 35.8536 126.2 36.7579C126.2 37.6622 125.5 38.3995 124.625 38.3995C123.786 38.3995 123.086 37.6622 123.086 36.7579C123.084 35.8536 123.786 35.1162 124.625 35.1162ZM123.313 48.7244V39.5598H125.971V48.7244H123.313Z" fill="white"/>
<path d="M131.169 39.5597H132.867V42.0124H131.169V45.4432C131.169 46.2001 131.554 46.4017 132.132 46.4017C132.412 46.4017 132.675 46.3475 132.832 46.3107V48.6333C132.727 48.6875 132.289 48.8913 131.449 48.8913C129.646 48.8913 128.543 47.7658 128.543 45.9398V42.0124H127.004V39.5597H127.442C128.352 39.5597 128.79 38.9134 128.79 38.0655V36.8857H131.169V39.5597Z" fill="white"/>
<path d="M135.631 45.1113C136.61 45.1113 137.433 45.9593 137.433 46.9915C137.433 48.0065 136.61 48.8913 135.631 48.8913C134.651 48.8913 133.846 48.0065 133.846 46.9915C133.846 45.9593 134.651 45.1113 135.631 45.1113Z" fill="white"/>
<path d="M3.33335 3.20312C4.41781 3.20312 5.0475 3.86456 5.0475 4.75587C5.0475 5.35225 4.6915 5.84236 4.24085 5.99851C4.73677 6.11995 5.2183 6.60356 5.2183 7.35391C5.2183 8.3016 4.5351 8.99557 3.49797 8.99557H1.28174V3.20312H3.33335ZM3.13992 5.52357C3.56588 5.52357 3.84574 5.28719 3.84574 4.89467C3.84574 4.51949 3.60498 4.27443 3.12551 4.27443H2.47526V5.52357H3.13992ZM3.24075 7.94161C3.71404 7.94161 4.00008 7.6792 4.00008 7.26282C4.00008 6.86163 3.72022 6.58404 3.24075 6.58404H2.4732V7.93944L3.24075 7.94161Z" fill="white"/>
<path d="M10.3256 6.83777H9.89137V8.99557H8.66699V3.20312H10.8462C11.9306 3.20312 12.6303 3.98817 12.6303 5.01611C12.6303 5.80116 12.2187 6.39754 11.5458 6.6491L12.6632 8.9934H11.3133L10.3256 6.83777ZM10.6137 5.72743C11.1178 5.72743 11.3894 5.43249 11.3894 5.02478C11.3894 4.59106 11.1178 4.32214 10.6137 4.32214H9.89343V5.72743H10.6137Z" fill="white"/>
<path d="M17.3429 3.20312H16.1021V8.99557H17.3429V3.20312Z" fill="white"/>
<path d="M24.2835 8.99557L22.02 5.18743V8.99557H20.8018V3.20312H22.2895L24.3514 6.72283V3.20312H25.5779V8.99557H24.2835Z" fill="white"/>
<path d="M33.2533 8.99494L33.1751 8.40724C32.9343 8.77591 32.4158 9.11856 31.6317 9.11856C30.1049 9.11856 28.8496 7.93448 28.8496 6.10414C28.8496 4.28248 30.1604 3.08105 31.7099 3.08105C33.2841 3.08105 34.0126 4.06128 34.2534 4.87018L33.0743 5.30391C32.9899 4.94392 32.6236 4.29116 31.7099 4.29116C30.965 4.29116 30.0905 4.8138 30.0905 6.10414C30.0905 7.31425 30.8498 7.94315 31.7408 7.94315C32.6483 7.94315 33.0269 7.32292 33.0969 6.99545H31.4465V5.90029H34.2451V8.99711L33.2533 8.99494Z" fill="white"/>
<path d="M16.7066 0C17.1326 0 17.4742 0.359995 17.4742 0.800229C17.4742 1.24046 17.1326 1.60046 16.7066 1.60046C16.2972 1.60046 15.9556 1.24046 15.9556 0.800229C15.9576 0.359995 16.2972 0 16.7066 0Z" fill="white"/>
<path d="M16.713 10.5698C17.139 10.5698 17.4805 10.9298 17.4805 11.3701C17.4805 11.8103 17.139 12.1703 16.713 12.1703C16.3035 12.1703 15.9619 11.8103 15.9619 11.3701C15.964 10.9298 16.3035 10.5698 16.713 10.5698Z" fill="white"/>
<path d="M64.0998 29.4195L59.6488 24.7287L63.6327 20.5302L61.6099 18.3984L57.626 22.5969L53.6442 18.3984L51.6194 20.5302L55.6032 24.7287L51.1543 29.4195L53.1771 31.5513L57.626 26.8605L62.077 31.5513L64.0998 29.4195Z" fill="white"/>
</svg>
