<svg width="152" height="62" viewBox="0 0 152 62" fill="none" xmlns="http://www.w3.org/2000/svg">
<path d="M75.1375 15.1241C75.2774 14.9842 75.5805 15.1241 75.8835 15.1241C76.1866 15.1241 76.1866 15.5671 76.6295 15.4272C77.0725 15.2873 77.0725 15.8701 77.8418 15.8701C78.4479 15.8701 77.7019 16.1732 77.7019 16.1732C77.7019 16.1732 77.259 16.0333 77.0958 16.1732C76.9559 16.1732 77.0958 16.1732 76.9559 15.8701C76.6528 15.5671 76.6529 15.8701 76.0467 15.4272C75.2774 14.9842 74.9976 15.4272 75.1375 15.1241ZM70.1486 15.8235C69.7056 15.2174 70.0087 14.4714 70.4516 13.5621C70.7547 13.1192 71.6639 12.8161 72.4099 13.1192C73.3191 12.5131 73.459 13.1192 74.205 12.8161C75.2541 12.3732 74.6479 14.0284 75.697 14.3082C76.14 13.2591 74.7878 12.5131 75.5571 11.9069C76.1633 11.6039 76.6062 11.464 76.7694 10.9977C77.2124 10.2517 77.3755 9.78546 77.5154 9.64559C78.1216 9.50571 77.9584 8.89957 77.9584 8.89957C77.9584 8.89957 78.7044 9.03945 79.1706 8.59651C78.8676 8.45663 78.2614 8.29344 78.4246 7.85049C78.5645 7.40755 79.9167 8.29344 80.2197 7.54743C79.4737 7.24436 78.7277 6.49835 78.2614 6.33516C77.9584 6.63822 77.6553 6.47504 77.2124 6.19528C76.4663 5.58915 76.4663 6.19528 76.0001 5.75234C75.697 6.49835 76.3032 6.49835 76.443 6.66154C76.886 7.10448 76.0001 6.21859 76.14 7.40755C76.14 7.71062 75.697 7.8505 75.3939 7.10448C74.951 6.80142 73.5989 6.80141 73.2958 6.49835C73.4357 6.0554 75.2541 4.54007 77.9584 5.00632C74.0418 3.35111 68.7964 5.1462 68.6332 5.61246C68.0271 5.91553 68.3301 6.35847 68.0271 6.35847C67.5841 6.49835 67.1179 7.85049 67.1179 7.85049C67.1179 7.85049 67.4209 7.99037 66.5117 9.06276C65.7657 9.97197 65.6025 11.3241 65.6025 11.3241C65.6025 11.3241 66.0455 12.2333 66.0455 13.2824C66.0455 14.0284 65.9056 13.4223 66.3486 14.0284C66.4884 14.3315 66.7915 15.5204 66.9547 15.0775C67.2578 14.1683 66.5117 13.4223 66.6516 12.5131C66.6516 12.6529 66.9547 12.21 66.9547 12.5131C66.9547 13.5621 68.3068 15.6603 68.3068 15.6603C68.3068 15.6603 67.8639 16.1033 68.3068 16.1033L68.167 16.4063C68.167 16.4063 68.6099 16.4063 68.7731 16.5462C69.0762 16.6861 69.216 16.9891 69.5191 16.9891H73.2725C73.2725 16.9891 73.5755 15.7769 73.7154 15.637C73.8553 15.4971 73.2725 15.637 73.1093 15.4971C72.5032 15.3572 72.5032 15.637 72.3633 15.8002C72.2234 16.1032 72.2234 16.4063 71.9203 16.5462C71.6173 16.6861 70.8712 16.6861 70.7081 16.6861C70.5449 16.6861 70.1486 15.8235 70.1486 15.8235ZM87.9596 28.156C87.8197 28.0161 87.9596 27.7131 87.9596 27.7131H77.2823L78.4946 28.7621C78.7976 28.902 79.1007 29.0652 79.2406 29.5082C79.5436 30.4174 79.1007 29.648 79.1007 31.1634C79.1007 32.5155 78.7976 32.2125 78.7976 32.2125C78.7976 32.2125 78.6578 33.7045 77.8884 34.7769C77.2823 35.2198 77.5854 35.6861 77.5854 35.6861C77.5854 35.6861 77.4455 35.8259 77.2823 36.8983C77.1424 37.2014 77.5854 37.8075 78.0283 37.6443C78.3314 37.5045 77.2823 37.5045 78.4713 36.8983C78.9142 36.7585 78.6111 36.2922 78.6111 36.2922C78.6111 36.2922 79.3571 36.2922 79.8234 35.0799C80.4295 35.383 80.1265 34.9401 81.6185 34.637C81.9216 34.4971 82.0614 34.4971 82.0614 34.0309C82.0614 33.7278 82.5044 34.0309 84.0197 32.5388C85.232 31.3266 84.7657 31.0468 85.5117 30.5806C86.4209 30.2775 86.4209 30.7204 86.724 30.4407C87.3301 29.5315 87.167 29.6947 87.47 29.0885L87.6099 28.7855C87.6565 28.7621 88.0995 28.2959 87.9596 28.156ZM80.4762 16.7094L80.1731 16.8493V16.5462C80.1731 16.5695 80.4762 16.7094 80.4762 16.7094ZM79.6136 16.5229C79.1706 16.6628 78.8676 16.5229 78.4013 16.826L78.0982 16.6861C78.4013 16.383 77.9584 16.0799 78.5412 16.0799C78.8676 16.0799 79.1706 16.383 79.6136 16.5229Z" fill="white"/>
<path d="M56.6037 16.8725C59.005 9.20261 64.8565 3.35107 74.7878 3.35107C83.9498 3.35107 90.5706 9.3658 92.9718 17.0124C90.4074 9.80874 83.2037 4.54003 74.7878 4.54003C66.3718 4.56335 59.1448 9.80874 56.6037 16.8725ZM92.9485 28.5989C90.5473 36.2689 83.6234 42.2603 74.7645 42.2603C65.4393 42.2603 59.1448 36.4087 56.7436 28.7388C59.308 35.8026 66.5117 40.9081 74.7645 40.9081C83.1804 40.9081 90.2442 35.8026 92.9485 28.5989ZM41.9866 18.7376H38.9792L39.4221 19.3437V23.2603C39.4221 24.1695 38.816 24.4725 37.9301 24.4725C37.0209 24.4725 36.4381 24.1695 36.4381 23.2603V19.3437L37.0442 18.7376H34.0369L34.4798 19.3437V23.2603C34.4798 25.2185 35.5289 25.9646 38.0933 25.9646C40.6577 25.9646 41.5436 25.2185 41.5436 23.2603V19.2038L41.9866 18.7376ZM52.3375 18.7376H49.7731L50.216 19.3437V22.9572L46.6025 18.7609H44.3412L44.7841 19.367V25.3817L44.3412 25.9879H46.9056L46.4626 25.3817V21.7682L50.3792 25.9646H52.0344V19.3437L52.3375 18.7376ZM58.1424 25.8247L57.6994 25.2186V19.2038L58.1424 18.7609H55.135L55.578 19.367V25.3817L55.135 25.8247H58.1424ZM68.0504 18.7376H65.4859L65.9289 19.3437L64.1338 23.2603L62.4786 19.3437L62.9215 18.7376H59.9142L63.2246 25.8014H64.7166L68.0504 18.7376ZM76.4896 25.8247V23.8664L75.8835 24.3093H72.27V22.9572H74.5314L74.9743 23.4001V21.1388L74.5314 21.5817H72.27V20.2762H75.8835L76.4896 20.7192V18.7609H69.8688L70.3117 19.367V25.3817L69.8688 25.8247H76.4896ZM84.2062 21.0455C84.2062 21.4885 83.7633 21.9548 82.9939 21.9548H81.6418V20.1597H83.297C83.7632 20.2762 84.2062 20.4394 84.2062 21.0455ZM86.6074 25.848L84.6491 23.0038C85.6982 22.7008 86.3044 21.9548 86.3044 20.9057C86.3044 19.6934 85.5583 18.8075 83.6001 18.8075H79.2406L79.6835 19.4136V25.4051L79.2406 26.0112H82.2479L81.805 25.4051V23.4468H82.7142L84.0663 25.4051L83.6234 26.0112H86.6307L86.6074 25.848ZM95.6295 23.7498C95.6295 22.7008 94.7203 21.9548 93.3682 21.4885C92.6221 21.3486 91.4099 21.0455 91.4099 20.5793C91.4099 20.2762 91.7129 20.1363 92.3191 20.1363C93.0651 20.1363 94.2774 20.4394 95.3264 20.8824V18.4811L94.7203 19.0873C94.1142 18.7842 93.0651 18.4811 92.3191 18.4811C89.9179 18.4811 89.1718 19.5302 89.1718 20.5793C89.1718 21.9314 90.081 22.5376 91.4332 22.9805C92.4823 23.2836 93.3915 23.4235 93.3915 23.8897C93.3915 24.3327 92.7853 24.4959 92.4823 24.4959C91.7363 24.4959 90.3841 24.1928 89.1718 23.4468V26.0112L89.778 25.4051C90.3841 25.7081 91.5731 26.0112 92.6221 26.0112C94.7203 26.0112 95.6295 25.102 95.6295 23.7498ZM102.81 23.2836H100.409L101.621 20.7192L102.81 23.2836ZM106.26 25.8247L102.647 18.7609H100.245L100.549 19.367L97.4013 25.9879H99.9657L99.5228 25.3817L99.8258 24.6357H103.136L103.439 25.3817L103.299 25.8247H106.26ZM114.606 25.8247V23.8664L114 24.3093H110.55V19.2038L110.993 18.5977H107.985L108.591 19.2038V25.2186L108.149 25.8247H114.606ZM113.114 20.2762C113.114 19.5302 113.72 18.9241 114.466 18.9241C115.212 18.9241 115.958 19.5302 115.958 20.2762C115.958 21.0222 115.352 21.6284 114.466 21.6284C113.557 21.6284 113.114 21.0222 113.114 20.2762ZM113.254 20.2762C113.254 21.0222 113.86 21.6284 114.606 21.6284C115.352 21.6284 115.958 21.0222 115.958 20.2762C115.958 19.5302 115.352 18.9241 114.606 18.9241C113.883 18.9241 113.277 19.5302 113.254 20.2762Z" fill="white"/>
<path d="M115.049 19.7168C114.909 19.5769 114.746 19.5769 114.606 19.5769C114.163 19.5769 113.86 19.88 113.86 20.3229C113.86 20.7659 114.163 21.0689 114.606 21.0689C114.746 21.0689 114.909 21.0689 115.049 20.929V20.7892C114.909 20.9291 114.746 21.0922 114.606 21.0922C114.303 21.0922 114 20.7892 114 20.4861C114 20.183 114.14 19.7401 114.606 19.7401C114.746 19.7401 114.909 19.7401 115.049 19.88V19.7168ZM9.86163 51.5389V54.2432C9.86163 55.5953 9.11561 56.0383 7.4604 56.0383C5.80518 56.0383 5.05917 55.5953 5.05917 54.2432V51.5389L4.7561 51.2358H6.85426L6.5512 51.5389V54.2432C6.5512 54.8493 6.99414 55.1524 7.60028 55.1524C8.20641 55.1524 8.64935 54.8493 8.64935 54.2432V51.5389L8.34629 51.2358H10.3046L9.86163 51.5389ZM17.5782 51.5389V55.8984H16.5291L13.9647 53.0542V55.4554L14.2678 55.7585H12.6125L12.9156 55.4554V51.5389L12.6125 51.2358H14.1046L16.5058 53.9401V51.5389L16.2027 51.2358H17.8579L17.5782 51.5389ZM20.4923 55.945L20.7954 55.642V51.5855L20.4923 51.1426H22.4506L22.1475 51.5855V55.642L22.4506 55.945H20.4923ZM27.696 55.945H26.6469L24.3856 51.1426H26.3438L26.204 51.5855L27.4162 54.1499L28.6285 51.5855L28.3254 51.1426H29.9806L27.696 55.945ZM31.869 55.945L32.1721 55.642V51.5855L31.869 51.1426H36.3684V52.4947L36.0653 52.1916H33.5009V53.1008H34.9929L35.296 52.7978V54.2898L35.1561 53.9867H33.6641V54.8959H36.0653L36.3684 54.5929V55.945H31.869ZM41.6604 52.1683H40.6113V53.3806H41.5205C41.9635 53.3806 42.2665 53.0775 42.2665 52.7745C42.2665 52.3315 41.9635 52.1683 41.6604 52.1683ZM41.8236 55.9217L42.1267 55.6186L41.2175 54.2665H40.6113V55.6186L40.9144 55.9217H38.9561L39.2592 55.6186V51.5622L38.9561 51.2591H41.9635C43.3156 51.2591 43.7586 51.8653 43.7586 52.7511C43.7586 53.4972 43.3156 53.9634 42.7095 54.2432L44.0616 56.2015H41.8003L41.8236 55.9217ZM48.6543 56.0849C47.9083 56.0849 47.1622 55.7818 46.696 55.642L46.3929 56.0849V54.2898C47.1389 54.8959 48.0481 55.0358 48.6543 55.0358C48.7941 55.0358 49.2604 55.0358 49.2604 54.5929C49.2604 54.1499 48.6543 54.1499 47.9083 53.9867C46.9991 53.6837 46.4162 53.2407 46.4162 52.3315C46.4162 51.7254 46.8592 50.9794 48.5144 50.9794C48.9573 50.9794 49.7267 51.1192 50.0064 51.2824L50.4494 50.9794V52.6346C49.8432 52.3315 48.9573 52.0285 48.4911 52.0285C48.0481 52.0285 47.8849 52.1683 47.8849 52.3315C47.7451 52.7745 48.631 52.9377 49.2371 53.0775C50.1463 53.3806 50.7291 53.8235 50.7291 54.5696C50.7757 55.4788 50.0064 56.0849 48.6543 56.0849ZM55.4849 52.518L54.7389 54.1732H56.3941L55.4849 52.518ZM56.534 55.9683L56.8371 55.5254L56.6972 55.0824H54.4359L54.1328 55.5254L54.4359 55.8285H52.6408L54.7389 51.4689L54.5991 51.1659H56.2543L58.6555 55.9683H56.534ZM60.6138 55.945L60.9168 55.642V51.5855L60.6138 51.1426H62.5721L62.269 51.5855V54.8959H64.5303L64.8334 54.5929V55.945H60.6138ZM75.6739 55.945L75.977 55.642V53.3806L74.7647 55.945H74.1586L72.6665 53.2407V55.642L72.9696 55.945H71.3144L71.6175 55.642V51.5855L71.3144 51.2824H72.9696L74.4616 54.1266L75.8138 51.2824H77.469L77.3291 51.5855V55.642L77.6322 55.945H75.6739ZM85.069 51.5389V54.2432C85.069 55.5953 84.323 56.0383 82.6678 56.0383C81.0126 56.0383 80.2665 55.5953 80.2665 54.2432V51.5389L79.9635 51.2358H82.0616L81.7586 51.5389V54.2432C81.7586 54.8493 82.2015 55.1524 82.8076 55.1524C83.4138 55.1524 83.8567 54.8493 83.8567 54.2432V51.5389L83.5536 51.2358H85.5119L85.069 51.5389ZM89.9647 56.0849C89.2187 56.0849 88.4727 55.7818 88.0064 55.642L87.7034 56.0849V54.2898C88.4494 54.8959 89.3586 55.0358 89.9647 55.0358C90.1046 55.0358 90.5708 55.0358 90.5708 54.5929C90.5708 54.1499 89.9647 54.1499 89.2187 53.9867C88.3095 53.6837 87.7267 53.2407 87.7267 52.3315C87.7267 51.7254 88.1696 50.9794 89.8248 50.9794C90.2678 50.9794 91.0371 51.1192 91.3168 51.2824L91.7598 50.9794V52.6346C91.1537 52.3315 90.2678 52.0285 89.8015 52.0285C89.3353 52.0285 89.1954 52.1683 89.1954 52.3315C89.0555 52.7745 89.9414 52.9377 90.5475 53.0775C91.4567 53.3806 92.0395 53.8235 92.0395 54.5696C92.0629 55.4788 91.3168 56.0849 89.9647 56.0849ZM94.534 55.945L94.8371 55.642V51.5855L94.534 51.1426H96.4923L96.1892 51.5855V55.642L96.4923 55.945H94.534ZM101.691 56.0383C100.199 56.0383 98.9868 55.2923 98.9868 53.4739C98.9868 52.1217 100.036 51.0726 101.831 51.0726C102.437 51.0726 103.043 51.2125 103.323 51.3757L103.626 51.0726V52.5646C103.02 52.2616 102.414 52.1217 101.831 52.1217C100.782 52.1217 100.479 52.7278 100.479 53.6137C100.479 54.5229 101.085 55.1058 101.971 55.1058C102.88 55.1058 103.323 54.8027 103.626 54.6628V55.572C103.183 55.7352 102.437 56.0383 101.691 56.0383ZM113.278 53.5904H114.933V55.5487C114.63 55.6886 113.581 55.9916 112.835 55.9916C111.343 55.9916 109.99 55.2456 109.99 53.4272C109.99 51.6321 111.482 51.026 112.835 51.026C113.581 51.026 114.047 51.1659 114.327 51.3291L114.77 51.026V52.6812C114.163 52.3781 113.557 52.0751 112.811 52.0751C111.902 52.0751 111.459 52.6812 111.459 53.5671C111.459 54.453 111.902 55.0591 112.811 55.0591C112.951 55.0591 113.254 55.0591 113.557 54.9193V53.8702L113.278 53.5904ZM120.062 52.1683H119.013V53.3806H119.922C120.365 53.3806 120.668 53.0775 120.668 52.7745C120.668 52.3315 120.365 52.1683 120.062 52.1683ZM120.225 55.9217L120.528 55.6186L119.619 54.2665H119.013V55.6186L119.316 55.9217H117.357L117.66 55.6186V51.5622L117.357 51.2591H120.365C121.717 51.2591 122.16 51.8653 122.16 52.7511C122.16 53.4972 121.717 53.9634 121.111 54.2432L122.463 56.2015H120.201L120.225 55.9217ZM127.312 52.0751C126.403 52.0751 126.1 52.6812 126.1 53.5671C126.1 54.4763 126.403 55.0591 127.312 55.0591C128.221 55.0591 128.524 54.453 128.524 53.5671C128.524 52.6812 128.221 52.0751 127.312 52.0751ZM127.312 56.1315C125.96 56.1315 124.608 55.3855 124.608 53.5671C124.608 51.772 125.96 51.0027 127.312 51.0027C128.664 51.0027 130.016 51.7487 130.016 53.5671C130.016 55.3855 128.664 56.1315 127.312 56.1315ZM137.22 51.5389V54.2432C137.22 55.5953 136.474 56.0383 134.819 56.0383C133.163 56.0383 132.417 55.5953 132.417 54.2432V51.5389L132.114 51.2358H134.213L133.909 51.5389V54.2432C133.909 54.8493 134.352 55.1524 134.959 55.1524C135.565 55.1524 136.008 54.8493 136.008 54.2432V51.5389L135.705 51.2358H137.663L137.22 51.5389ZM142.372 52.1683H141.626V53.6604H142.232C142.838 53.6604 143.281 53.5205 143.281 52.9143C143.281 52.3315 142.838 52.1683 142.372 52.1683ZM142.372 54.5696H141.463V55.6186L141.766 55.9217H139.808L140.111 55.6186V51.5622L139.808 51.2591H142.372C143.281 51.2591 144.633 51.5622 144.633 52.9143C144.633 54.2665 143.584 54.5696 142.372 54.5696Z" fill="white"/>
</svg>
