<svg width="88" height="34" viewBox="0 0 88 34" fill="none" xmlns="http://www.w3.org/2000/svg">
<g clip-path="url(#clip0)">
<path d="M26.7794 23.0407V17.5154C26.7835 16.9132 26.7548 16.3113 26.6936 15.7123C26.6466 15.2465 26.5552 14.7864 26.4205 14.3383C26.3003 13.95 26.1277 13.5802 25.9073 13.2394C25.6677 12.8808 25.3865 12.5522 25.0697 12.2606C24.4948 11.6931 23.8074 11.2543 23.0525 10.9731C22.2337 10.6603 21.3644 10.5032 20.4887 10.5099C19.5511 10.4761 18.6192 10.6689 17.7707 11.0722C17.0025 11.5013 16.345 12.1059 15.8508 12.8375V11.0938H15.8049V11.0767H10.9972V11.0938H10.7721V20.7C10.8301 21.5976 10.56 22.4854 10.0128 23.1961C9.73802 23.4959 9.40037 23.7303 9.02442 23.8822C8.64847 24.0341 8.24367 24.0997 7.8394 24.0743C7.45208 24.1096 7.06182 24.0569 6.69746 23.9198C6.3331 23.7828 6.00395 23.565 5.73435 23.2826C5.29773 22.7539 5.07925 21.893 5.07892 20.7V11.0938H0.000732422V21.3624C0.000732422 22.0487 0.0235284 22.6439 0.0691205 23.1479C0.107659 23.6135 0.193638 24.074 0.325701 24.5219C0.443276 24.9162 0.603652 25.2962 0.803918 25.655C1.01467 26.0223 1.26097 26.3677 1.53921 26.6861C2.15874 27.3985 2.92848 27.9625 3.79217 28.3367C4.65585 28.7109 5.59162 28.8858 6.53105 28.8487C8.70282 28.8487 10.1917 28.0789 10.9977 26.5392V28.2648H11.0437V28.2819H15.8513V28.2648H16.0764V18.6586C16.0764 16.4091 17.0542 15.2842 19.0096 15.2838C19.3954 15.2495 19.7836 15.31 20.1411 15.4599C20.4986 15.6099 20.8146 15.8449 21.0623 16.1449C21.4879 16.7189 21.7009 17.6257 21.7012 18.8653V28.2643H26.7804L26.7794 23.0407Z" fill="white"/>
<path d="M35.9414 10.1786V28.2821H40.7835V26.4277C41.1686 26.8383 41.5784 27.2246 42.0105 27.5845C42.3643 27.8823 42.7537 28.1344 43.1696 28.3349C43.5499 28.5144 43.9505 28.6463 44.3626 28.7277C44.8238 28.8113 45.2918 28.851 45.7603 28.8464C46.9481 28.8588 48.1258 28.6251 49.2202 28.1599C50.2572 27.7162 51.1919 27.0612 51.9657 26.2361C52.7526 25.3889 53.3613 24.3902 53.7553 23.2999C53.8411 23.0681 53.9125 22.8287 53.9809 22.5872V28.265H59.0536V18.6588C59.0536 16.4093 60.0312 15.2843 61.9863 15.284C62.372 15.2497 62.7603 15.3102 63.1177 15.4601C63.4752 15.6101 63.7913 15.8451 64.0389 16.145C64.4646 16.7191 64.6774 17.6259 64.6774 18.8655V28.265H69.7566V22.5365C69.8329 22.8151 69.9188 23.0897 70.0191 23.3542C70.4132 24.4314 71.0175 25.4182 71.7962 26.2562C72.5627 27.0719 73.4871 27.7205 74.5123 28.1619C75.6032 28.6282 76.7782 28.862 77.9631 28.8484C78.9882 28.8795 80.0079 28.6877 80.9528 28.2861C81.8272 27.858 82.5928 27.234 83.1911 26.4619V28.2821H87.9987V5.35791H82.9195V12.5208C82.2689 11.8768 81.5036 11.3622 80.6637 11.004C79.7705 10.6572 78.8188 10.4895 77.8618 10.5101C76.7047 10.4998 75.5583 10.7337 74.4963 11.1966C73.4815 11.6392 72.5683 12.2879 71.8137 13.1022C71.0428 13.9463 70.4395 14.9314 70.0366 16.0042C69.9239 16.2984 69.8261 16.5982 69.7436 16.9025C69.7351 16.505 69.711 16.108 69.6712 15.7125C69.6244 15.2467 69.5329 14.7865 69.3982 14.3385C69.2778 13.9502 69.1052 13.5805 68.885 13.2395C68.6453 12.881 68.3641 12.5525 68.0474 12.2608C67.4725 11.6933 66.7851 11.2545 66.0302 10.9733C65.2113 10.6605 64.342 10.5034 63.4664 10.5101C62.529 10.4764 61.5972 10.6692 60.7488 11.0724C59.9584 11.5136 59.2844 12.1391 58.783 12.8965V11.0764H53.9754V16.652C53.907 16.4166 53.8356 16.1828 53.7498 15.9549C53.3556 14.8876 52.7593 13.9077 51.9941 13.0695C51.2486 12.2599 50.3429 11.6165 49.3355 11.181C48.2687 10.7252 47.1197 10.4971 45.961 10.5111C45.0532 10.4695 44.1469 10.6211 43.3012 10.956C42.4554 11.2909 41.6892 11.8017 41.0525 12.4549V5.35791H35.9414V10.1786ZM48.9776 21.4099C48.7671 21.9313 48.4592 22.4072 48.0706 22.8116C47.6877 23.2123 47.2277 23.5301 46.7188 23.7455C46.1821 23.9697 45.6059 24.0817 45.025 24.075C44.4552 24.0796 43.8903 23.9676 43.3648 23.7455C42.863 23.5345 42.4093 23.2225 42.0314 22.8287C41.6487 22.4263 41.3517 21.9493 41.1589 21.427C40.95 20.8682 40.8454 20.2753 40.8504 19.6782C40.8445 19.0857 40.955 18.4979 41.1753 17.9486C41.3841 17.4301 41.6858 16.9548 42.0654 16.5464C42.4402 16.1442 42.8948 15.826 43.3997 15.6124C43.9365 15.3882 44.5129 15.2761 45.0939 15.283C45.6655 15.2785 46.2315 15.3966 46.7542 15.6295C47.2549 15.8514 47.7082 16.1689 48.089 16.5645C48.4706 16.9646 48.7725 17.4346 48.9786 17.9491C49.4128 19.0614 49.4128 20.2981 48.9786 21.4104L48.9776 21.4099ZM81.9002 22.8292C81.4902 23.2424 81.0003 23.5663 80.4608 23.7807C79.9214 23.9951 79.3439 24.0954 78.7643 24.0755C78.1748 24.0799 77.59 23.968 77.0431 23.746C76.5293 23.5411 76.0645 23.2286 75.6794 22.8292C75.2965 22.4244 74.9955 21.9483 74.7933 21.4275C74.5726 20.8599 74.4627 20.2546 74.4699 19.645C74.4649 19.0469 74.5747 18.4534 74.7933 17.8973C74.9945 17.3771 75.3022 16.9055 75.6964 16.5132C75.7929 16.4179 75.8942 16.3276 75.9999 16.2426C76.327 15.9817 76.6899 15.7696 77.0771 15.6129C77.6353 15.3886 78.2318 15.2767 78.8327 15.2835C79.13 15.2826 79.4267 15.3102 79.7188 15.366C80.5449 15.5257 81.3047 15.9311 81.9002 16.5298C82.2864 16.9224 82.5933 17.3868 82.8037 17.8973C83.1237 18.7226 83.2086 19.6215 83.049 20.4929C82.8894 21.3642 82.4915 22.1733 81.9002 22.8292Z" fill="white"/>
<path d="M25.2054 28.5094L23.5137 34.0005H28.524L35.8595 10.1957L37.3895 5.23013L39.0008 -0.000488281H33.9905L26.8916 23.0439L25.2054 28.5094Z" fill="white"/>
</g>
<defs>
<clipPath id="clip0">
<rect width="88" height="34" fill="white"/>
</clipPath>
</defs>
</svg>
