<svg width="79" height="44" viewBox="0 0 79 44" fill="none" xmlns="http://www.w3.org/2000/svg">
<path d="M78.9992 41.6211C78.9992 18.3195 65.7446 0 39.4992 0C13.275 0 0.0203544 18.3535 0 41.5669V42.3994C0 42.4729 0 42.5425 0 42.6098C0.00156572 43.3772 0.631768 43.9992 1.40915 43.9992H77.5924C78.3596 43.9992 78.9828 43.3927 79 42.6384C79 42.3576 78.9992 42.0218 78.9992 41.6211Z" fill="white"/>
<path d="M39.3248 8.09745C38.6319 7.8143 37.9242 7.57215 37.2032 7.37256C34.4836 7.90481 31.9142 9.09852 29.6345 10.6999C30.4894 10.7858 31.3224 10.9142 32.1185 11.0852C33.0689 10.3936 34.0788 9.78705 35.1451 9.2896C36.4665 8.6738 37.8804 8.222 39.3248 8.09745Z" fill="#77478C"/>
<path d="M29.6344 10.7C29.3862 10.874 29.142 11.0535 28.9009 11.2368C28.6699 11.4125 28.4437 11.5935 28.2206 11.7761C26.9695 12.7988 25.8305 13.9306 24.8049 15.1522C25.5009 15.1885 26.1757 15.5784 26.4818 16.2097C26.5664 16.3838 26.6212 16.5702 26.6517 16.7605C27.13 16.0728 27.642 15.4067 28.1877 14.7654C29.1091 13.6838 30.1213 12.6735 31.2228 11.7761C31.5156 11.537 31.8147 11.3065 32.12 11.0844C31.3222 10.9142 30.4893 10.7866 29.6344 10.7Z" fill="#77478C"/>
<path d="M21.9947 19.1813C20.4219 21.9161 19.2899 24.91 18.5986 27.9991H21.3128C21.4279 27.9921 21.5492 27.9751 21.6416 27.9225C21.6416 27.9225 21.6126 27.5775 21.6033 27.3198C21.5336 25.3231 22.2679 23.2769 23.8039 21.9602C24.2102 20.9955 24.665 20.054 25.17 19.1418C24.9304 19.172 24.6744 19.1813 24.4114 19.1813H21.9947Z" fill="#77478C"/>
<path d="M18.7309 19.1008C18.3168 19.8041 17.9324 20.5243 17.5793 21.2592V27.9999H18.5994C19.2907 24.9108 20.4227 21.9168 21.9955 19.1821H19.5561C19.2296 19.1813 18.958 19.1604 18.7309 19.1008Z" fill="#77478C"/>
<path d="M29.6346 10.6999C31.9143 9.09849 34.4837 7.90478 37.2033 7.37253C36.5465 7.19072 35.8811 7.04373 35.2055 6.93311C32.1602 7.57057 29.2221 8.81766 26.6316 10.5668C27.647 10.5575 28.6545 10.6016 29.6346 10.6999Z" fill="#77478C"/>
<path d="M26.6315 10.5669C26.2902 10.7974 25.9536 11.0372 25.6248 11.2848C25.4118 11.4449 25.202 11.6097 24.9946 11.7768C23.7624 12.7694 22.628 13.8765 21.6001 15.0756V15.1847C22.1935 15.0663 22.8589 15.2535 23.2308 15.7448C23.6136 15.3634 24.1608 15.1491 24.7135 15.1506C24.7441 15.1506 24.7738 15.1514 24.8036 15.1529C25.8291 13.9322 26.9682 12.8003 28.2192 11.7768C28.4431 11.5935 28.6685 11.4132 28.8995 11.2376C29.1406 11.0543 29.3849 10.8756 29.633 10.7007C28.6545 10.6017 27.6461 10.5576 26.6315 10.5669Z" fill="#77478C"/>
<path d="M18.006 18.5616C17.8549 18.3017 17.8016 17.9961 17.8008 17.6936L17.7985 16.8775C17.7985 16.8775 17.4728 16.6663 17.3577 16.3042C17.0744 16.6678 16.8004 17.0391 16.5342 17.4182C16.8919 17.6696 17.184 18.0209 17.3609 18.4812C17.5198 18.8935 17.577 19.3368 17.5793 19.777V19.7956V21.2585C17.9332 20.5236 18.3175 19.8033 18.7317 19.1001C18.4068 19.015 18.1743 18.8525 18.006 18.5616Z" fill="#77478C"/>
<path d="M35.2061 6.93306C34.1211 6.75512 33.0133 6.6708 31.8891 6.68395C28.6442 7.57285 25.6943 8.97543 23.1023 10.8097C24.2633 10.6596 25.4517 10.5776 26.6314 10.5668C29.2227 8.81761 32.1608 7.57053 35.2061 6.93306Z" fill="#77478C"/>
<path d="M23.1022 10.8091C22.6638 11.1193 22.2356 11.4419 21.8183 11.7769C20.7849 12.6047 19.8158 13.5037 18.9163 14.4715C19.2341 14.5078 19.5191 14.7012 19.6529 14.9898V14.0088C19.8134 13.7466 20.1962 13.6158 20.5462 13.6158C21.0308 13.6274 21.4684 13.9794 21.5702 14.4877C21.5921 14.5976 21.6007 14.7097 21.6015 14.8211V15.0749C22.6294 13.8758 23.7637 12.7687 24.996 11.7762C25.2034 11.6091 25.4132 11.4443 25.6262 11.2834C25.955 11.0358 26.2908 10.7967 26.6329 10.5654C25.4516 10.5778 24.264 10.659 23.1022 10.8091Z" fill="#77478C"/>
<path d="M31.8892 6.68408C31.7781 6.68486 31.6959 6.68718 31.6011 6.6895C31.5307 6.69182 31.4673 6.69337 31.3968 6.69569C31.3851 6.69646 31.3671 6.69723 31.3545 6.69723C29.1915 6.78156 26.9729 7.22639 24.7433 8.06114C22.5411 9.07227 20.5542 10.3062 18.7771 11.7405C20.1213 11.3189 21.5891 11.0056 23.1032 10.8091C25.6952 8.97556 28.6451 7.57298 31.8892 6.68408Z" fill="#77478C"/>
<path d="M18.7764 11.7406C18.7615 11.753 18.7459 11.7646 18.731 11.777C16.8701 13.284 15.2386 15.0107 13.8271 16.9332C14.1528 16.9053 14.4926 16.9061 14.8339 16.9084C15.4398 16.9146 16.0473 17.0755 16.5327 17.4175C16.7981 17.0384 17.0729 16.6678 17.3563 16.3035C17.3109 16.1603 17.2984 15.9948 17.3516 15.8083C17.4166 15.5817 17.5864 15.3914 17.8056 15.2931C17.855 14.815 18.284 14.4607 18.8241 14.4638C18.8555 14.4645 18.886 14.4669 18.9157 14.47C19.8152 13.5022 20.7852 12.6024 21.8178 11.7754C22.2359 11.4412 22.6641 11.1178 23.1025 10.8076C21.5884 11.0057 20.1206 11.3182 18.7764 11.7406Z" fill="#77478C"/>
<path d="M42.0954 9.49222C41.2021 8.95223 40.2776 8.48651 39.3248 8.09814C37.8805 8.2227 36.4666 8.6745 35.1459 9.2903C34.0789 9.78774 33.0698 10.3943 32.1194 11.0851C32.9516 11.2638 33.7446 11.4889 34.4789 11.7636C37.2041 9.54096 39.9918 8.68378 42.0954 9.49222Z" fill="#77478C"/>
<path d="M32.1192 11.0852C31.8138 11.3072 31.5148 11.5378 31.222 11.7768C30.1213 12.6742 29.1083 13.6846 28.1876 14.7669C27.642 15.4075 27.13 16.0735 26.6509 16.7621C26.6728 16.8998 26.6822 17.0406 26.6806 17.1814C26.6783 17.3701 26.6376 17.5396 26.4935 17.7059C26.4935 17.7059 26.6149 18.1376 26.4191 18.4764C26.1741 18.8981 25.7161 19.0744 25.1713 19.1425C24.6663 20.0546 24.2115 20.9961 23.8052 21.9608C23.831 21.9392 23.8568 21.9175 23.8827 21.8951C25.0444 20.9342 26.5366 20.4345 28.0741 20.3215C29.8434 16.595 32.1293 13.6854 34.463 11.7768C34.4685 11.7722 34.4732 11.7683 34.4795 11.7637C33.7436 11.489 32.9513 11.2639 32.1192 11.0852Z" fill="#77478C"/>
<path fill-rule="evenodd" clip-rule="evenodd" d="M28.5612 6.57495C42.9337 2.71842 56.7645 14.8667 57.9177 33.1126L57.913 33.1134H55.5354C54.9905 33.1134 54.5365 32.7011 54.4887 32.1642C52.7813 13.2993 38.9795 2.73002 24.7432 8.06108C24.8567 8.00151 26.2134 7.29674 28.5612 6.57495Z" fill="#77478C"/>
<path fill-rule="evenodd" clip-rule="evenodd" d="M34.5681 5.28686C48.2094 4.59756 60.1394 16.9083 61.2628 33.1142L58.6927 33.115H57.9169V33.1142C56.7637 14.8651 42.929 2.71533 28.5549 6.5765C30.1324 6.09066 32.1616 5.59631 34.5681 5.28686Z" fill="#77478C"/>
<path fill-rule="evenodd" clip-rule="evenodd" d="M38.1122 4.99536C52.5591 5.32725 63.5927 17.6124 64.6605 33.1136L62.9649 33.1144H61.2629C60.1395 16.9084 48.2095 4.59772 34.5674 5.28702C35.672 5.14467 36.8565 5.04101 38.1122 4.99536Z" fill="#77478C"/>
<path fill-rule="evenodd" clip-rule="evenodd" d="M38.1113 4.9953C38.5826 4.97828 39.0649 4.96899 39.5565 4.96899C40.2305 4.96899 40.8913 4.98369 41.5403 5.01154C56.4146 6.15342 66.9229 18.0518 67.9994 33.1135C67.0036 33.1143 65.8567 33.1143 64.6605 33.1143C63.5927 17.6131 52.5582 5.32718 38.1113 4.9953Z" fill="#77478C"/>
<path fill-rule="evenodd" clip-rule="evenodd" d="M41.5403 5.01147C63.5637 5.96381 70.8326 22.7399 71.296 32.1603C71.3062 32.4102 71.2138 32.6524 71.0385 32.8311C70.8639 33.0106 70.6228 33.1127 70.3715 33.1127C69.7867 33.1127 68.9639 33.1135 67.9986 33.1135C66.923 18.0517 56.4154 6.15335 41.5403 5.01147Z" fill="#77478C"/>
<path fill-rule="evenodd" clip-rule="evenodd" d="M56.4929 10.6822C52.3492 7.48631 47.2685 5.45089 41.5403 5.01147C49.9866 5.37663 56.262 8.06885 60.8166 11.7807C59.4889 11.2624 58.0391 10.8903 56.4929 10.6822Z" fill="#77478C"/>
<path fill-rule="evenodd" clip-rule="evenodd" d="M53.2792 10.4842C49.0322 7.13824 43.8403 5.12681 38.1113 4.9953C38.5826 4.97828 39.0649 4.96899 39.5565 4.96899C40.2305 4.96899 40.8913 4.98369 41.5403 5.01154C47.2684 5.45096 52.3492 7.4856 56.4929 10.683C55.9566 10.6103 55.4078 10.5577 54.8489 10.5252L54.8442 10.5244C54.3447 10.4942 53.839 10.4811 53.3231 10.4842H53.2792Z" fill="#77478C"/>
<path fill-rule="evenodd" clip-rule="evenodd" d="M50.2598 10.6916C45.792 7.02613 40.3331 4.99536 34.5674 5.28702C35.672 5.14467 36.8557 5.04101 38.1114 4.99536C43.8404 5.12688 49.0323 7.13831 53.2793 10.4842C52.3086 10.492 51.312 10.5585 50.2919 10.6862L50.2598 10.6916Z" fill="#77478C"/>
<path fill-rule="evenodd" clip-rule="evenodd" d="M47.7124 11.1339C42.3787 6.59967 35.5303 4.70274 28.5542 6.57646C30.1317 6.09062 32.1608 5.59627 34.5673 5.28605C40.3331 4.99517 45.792 7.02594 50.2598 10.6914C49.4495 10.7919 49.2014 10.8097 47.7421 11.1277L47.7124 11.1339Z" fill="#77478C"/>
<path fill-rule="evenodd" clip-rule="evenodd" d="M45.2127 11.7956C39.6544 6.86447 32.2595 5.24759 24.7424 8.06204C24.8559 8.0017 26.2126 7.2977 28.5604 6.57591C35.5342 4.70528 42.3795 6.60144 47.7116 11.1349C46.8896 11.3144 46.055 11.5349 45.2127 11.7956Z" fill="#77478C"/>
<path d="M42.3405 25.3532H40.9494C40.9494 26.3984 40.9462 27.4428 40.9501 28.4872C40.9501 28.7162 41.0253 28.9598 41.2562 28.9598C41.4872 28.9598 41.6093 28.9258 41.8833 28.6666C41.9866 28.5692 42.1299 28.4485 42.3225 28.426C42.3287 28.4253 42.3342 28.4237 42.3397 28.4222V25.3532H42.3405ZM28.6882 25.1443C28.0924 25.1497 27.5045 25.4344 27.1929 25.9396C26.6167 26.8741 26.861 28.3464 27.9351 28.8036C28.9231 29.2244 30.2195 28.6605 30.4535 27.5101C30.6258 26.6645 30.3165 25.665 29.4671 25.2959C29.2229 25.1892 28.9536 25.1435 28.6882 25.1443ZM48.1391 25.3532C48.1391 26.3984 48.136 27.4428 48.1391 28.4872C48.1391 28.5003 48.1399 28.5127 48.1399 28.5258C48.1438 28.6481 48.136 28.7881 48.2096 28.8778C48.4781 29.0434 48.7106 28.867 48.9447 28.6264C49.3408 28.2187 50.2865 28.2984 50.8345 28.9181C51.2847 29.4263 51.424 30.0584 51.4013 30.675C51.3684 31.577 50.8917 32.4373 50.1393 32.9835C49.1083 33.7316 47.7234 33.9041 46.4622 33.7927C45.3741 33.6968 44.264 33.3185 43.4889 32.493C43.4889 32.493 43.4655 32.5232 43.4224 32.5657C42.4321 33.6202 40.7983 33.8909 39.458 33.8066C38.4293 33.7424 37.3873 33.4484 36.6131 32.7939C35.8036 32.1085 35.3621 31.0649 35.218 30.0027C34.5941 31.4192 33.4057 32.5781 31.9331 33.2032C29.345 34.301 26.0656 33.9946 23.9668 32.3406C23.9668 32.3406 23.5667 32.886 23.0853 33.1436C23.0226 33.1777 22.9577 33.2078 22.8927 33.2365C22.4504 33.4275 21.965 33.4948 21.4851 33.4979C19.1631 33.5018 16.8412 33.5026 14.5184 33.4979C13.323 33.4902 12.1119 32.9417 11.6328 31.707C11.452 31.2405 11.3846 30.7376 11.3815 30.2379C11.3745 26.745 11.3611 23.2513 11.3823 19.7576C11.3909 18.8284 11.7017 17.8297 12.5566 17.3036C13.2048 16.9052 14.0111 16.9036 14.8355 16.9083C15.8876 16.9199 16.9429 17.3949 17.361 18.4811C17.5199 18.8934 17.5771 19.3367 17.5794 19.7769V19.7955V27.999H21.3137C21.4295 27.992 21.5509 27.975 21.6432 27.9224C21.6432 27.9224 21.6135 27.5774 21.6049 27.3198C21.5344 25.2898 22.2946 23.2079 23.883 21.8951C25.2287 20.7826 27.0176 20.2883 28.8048 20.296C30.4121 20.3076 32.0154 20.7277 33.3094 21.704C33.3094 21.704 33.4456 21.458 33.6155 21.2715C33.9976 20.8522 34.5643 20.6263 35.1397 20.5559L35.1515 20.5544C35.1515 19.6129 35.2517 18.625 35.9617 17.9496C36.4589 17.4769 37.1736 17.2634 37.8735 17.2556C38.9867 17.2479 40.1939 17.4491 40.7403 18.5886C40.9721 19.0714 41.0433 19.616 41.0441 20.1428V20.5273H42.3413C42.3413 19.6067 42.4368 18.6288 43.1508 17.9504C43.6534 17.4723 44.3759 17.2603 45.0813 17.2556C46.1922 17.2533 47.3829 17.4491 47.9301 18.5886C48.1618 19.0714 48.2331 19.616 48.2339 20.1436V20.5281H48.8343C49.6673 20.5304 50.5441 20.7687 51.0068 21.5121C51.3449 22.056 51.3786 22.7554 51.3176 23.3441C51.2479 24.0195 50.8901 24.6639 50.2795 25.0113C49.8332 25.265 49.3079 25.3524 48.7881 25.354H48.1391V25.3532Z" fill="white"/>
<path fill-rule="evenodd" clip-rule="evenodd" d="M50.338 29.5354C50.2167 29.349 50.0202 29.2213 49.7986 29.1865C49.5763 29.1517 49.35 29.2113 49.1755 29.3513C48.961 29.5254 48.7324 29.6213 48.3801 29.6213C47.699 29.6213 47.3937 29.2275 47.3937 28.4616V24.6105H48.7793C49.9763 24.6105 50.587 24.0535 50.587 23.0099V22.7778C50.587 21.7566 50.0233 21.2468 48.8255 21.2468H47.4884V20.1328C47.4884 18.4849 46.6664 17.9751 45.4694 17.9751H45.0928C43.8011 17.9751 43.0738 18.7178 43.0738 20.1328V21.2468H40.2986V20.1328C40.2986 18.4849 39.4766 17.9751 38.2796 17.9751H37.9038C36.6121 17.9751 35.8848 18.7178 35.8848 20.1328V21.2468H35.6265C34.4052 21.2468 33.7946 21.8038 33.7946 22.8482V23.1035C33.7946 23.1337 33.7969 23.1623 33.7985 23.1917C32.6978 21.8185 30.9356 21.0147 28.742 21.0147C24.8911 21.0147 22.332 23.4276 22.332 27.0242C22.332 27.3337 22.3515 27.6331 22.386 27.924C22.357 28.5916 21.647 28.703 21.3275 28.7185H17.5455C17.2919 28.7185 17.1494 28.6751 17.0132 28.5405C16.8809 28.4098 16.8331 28.2644 16.8331 28.0145V19.7839C16.8331 18.3457 16.1286 17.6262 14.7899 17.6262H14.1096C12.8179 17.6262 12.1133 18.3457 12.1133 19.7839V30.2015C12.1133 31.8958 12.9823 32.7537 14.5315 32.7537H21.4575C22.8212 32.7537 23.5258 32.1224 23.6096 30.9566C24.7064 32.3058 26.4584 33.0786 28.67 33.0786C32.5209 33.0786 35.0566 30.7121 35.0566 27.0459C35.0566 26.0642 34.8702 25.1729 34.525 24.3924C34.8108 24.5355 35.1787 24.6097 35.6249 24.6097H35.8833V28.9482C35.8833 31.6861 37.1977 33.0779 39.9682 33.0779C41.8776 33.0779 43.1662 32.2423 43.4183 31.0053C43.9718 32.38 45.1993 33.0779 47.1572 33.0779C49.2937 33.0779 50.6558 32.0342 50.6558 30.5496C50.6574 30.1458 50.5149 29.8046 50.338 29.5354ZM28.695 29.6685C27.192 29.6685 26.1594 28.5777 26.1594 27.0235C26.1594 25.4925 27.2154 24.4016 28.695 24.4016C30.1747 24.4016 31.2315 25.4925 31.2315 27.0467C31.2315 28.5545 30.1512 29.6685 28.695 29.6685ZM43.0738 24.6105V28.949C43.0738 29.0991 43.0793 29.2438 43.0872 29.3861C43.0464 29.3381 42.9869 29.2995 42.9134 29.2585C42.6574 29.1138 42.338 29.1347 42.1047 29.3134C41.8518 29.5068 41.6075 29.6221 41.1911 29.6221C40.51 29.6221 40.2047 29.2283 40.2047 28.4624V24.6113H43.0738V24.6105Z" fill="#77478C"/>
<path d="M19.653 14.9897V14.0087C19.8135 13.7465 20.1963 13.6157 20.5455 13.6157C21.0308 13.6273 21.4684 13.9793 21.5694 14.4876C21.5914 14.5975 21.6 14.7096 21.6008 14.821V15.1831C22.1942 15.0647 22.8596 15.2519 23.2315 15.7432C23.6151 15.3618 24.1623 15.1475 24.715 15.1491C25.4423 15.1552 26.1625 15.5513 26.4819 16.2089C26.6267 16.5091 26.6847 16.8441 26.6815 17.1798C26.6792 17.3686 26.6385 17.538 26.4944 17.7043C26.4944 17.7043 26.6158 18.136 26.4193 18.4749C26.067 19.0822 25.2747 19.1796 24.4128 19.1796H19.5551C18.7652 19.1796 18.2924 19.0543 18.0059 18.56C17.8555 18.3 17.8023 17.9944 17.8007 17.692L17.7984 16.8758C17.7984 16.8758 17.1635 16.4634 17.3522 15.8074C17.4171 15.5807 17.587 15.3896 17.8062 15.2914C17.8555 14.8141 18.2846 14.4597 18.8247 14.4628C19.1786 14.4721 19.5058 14.674 19.653 14.9897Z" fill="white"/>
<path d="M18.3654 16.4007V17.6904C18.3654 18.324 18.6566 18.652 19.286 18.652C19.7518 18.652 20.0376 18.4215 20.0376 18.1399C20.0376 17.9735 19.9374 17.8583 19.8419 17.876C19.7558 17.8915 19.6931 18.013 19.4724 18.013C19.2508 18.013 19.1577 17.8753 19.1577 17.5983V16.4007H19.6587C19.8975 16.4007 20.0024 16.2971 20.0024 16.1013V16.0549C20.0024 15.8646 19.9037 15.7671 19.6704 15.7671H19.1749V15.4105C19.1749 15.1111 19.0293 15.019 18.8085 15.019H18.738C18.5047 15.019 18.3654 15.1459 18.3654 15.4105V15.7671H18.226C17.9928 15.7671 17.8816 15.8708 17.8816 16.0665V16.1184C17.8816 16.3025 17.9928 16.4 18.226 16.4H18.3654V16.4007Z" fill="#77478C"/>
<path d="M21.0395 16.2105V14.8203C21.0395 14.2958 20.771 14.1697 20.5267 14.1697C20.3639 14.1697 20.2183 14.2331 20.2183 14.2617V18.2134C20.2183 18.5128 20.3694 18.5995 20.5909 18.5995H20.6786C20.8884 18.5995 21.0395 18.5074 21.0395 18.2134V17.0391C21.0395 16.636 21.2837 16.383 21.6689 16.383C21.9946 16.383 22.1926 16.6136 22.1926 17.005V18.2134C22.1926 18.5128 22.3445 18.5995 22.5661 18.5995H22.6537C22.8635 18.5995 23.0146 18.5074 23.0146 18.2134V16.8897C23.0146 16.2329 22.6999 15.7038 21.9546 15.7038C21.517 15.7038 21.2195 15.9173 21.0395 16.2105Z" fill="#77478C"/>
<path d="M23.9635 17.3911H25.9207C26.0718 17.3911 26.1133 17.3106 26.1188 17.1667V17.1095C26.1188 16.2864 25.5418 15.7046 24.7033 15.7046C23.8414 15.7046 23.2183 16.3382 23.2183 17.1954C23.2183 18.0819 23.8297 18.6521 24.7558 18.6521C25.5481 18.6521 25.9849 18.3125 25.9849 18.0131C25.9849 17.7307 25.7179 17.6557 25.6115 17.6905C25.5011 17.7261 25.3508 18.0587 24.7855 18.0587C24.3425 18.0587 24.0223 17.8112 23.9635 17.3911ZM23.9635 16.9184C24.016 16.5386 24.3072 16.2678 24.6916 16.2678C25.0877 16.2678 25.3382 16.527 25.3555 16.9184H23.9635Z" fill="#77478C"/>
<path d="M12.2207 37.9803V37.7969C12.2207 37.1177 12.598 36.751 13.1711 36.751C13.7434 36.751 14.1246 37.1115 14.1246 37.7969V37.9803C14.1246 38.6804 13.7535 39.0169 13.168 39.0169C12.5612 39.0177 12.2207 38.6905 12.2207 37.9803ZM13.7034 37.9656V37.8155C13.7034 37.3567 13.5273 37.1123 13.1711 37.1123C12.8118 37.1123 12.6419 37.366 12.6419 37.8124V37.9656C12.6419 38.412 12.8118 38.651 13.1711 38.651C13.5273 38.6502 13.7034 38.412 13.7034 37.9656Z" fill="#77478C"/>
<path d="M15.046 37.5618L15.0428 38.9722H14.6561V37.5618H14.3438V37.2129H14.6561V37.1425C14.6561 36.6962 14.8354 36.5244 15.2566 36.5244H15.4672V36.8548H15.3121C15.0828 36.8548 15.046 36.9066 15.046 37.1913V37.2129H15.464V37.5618H15.046Z" fill="#77478C"/>
<path d="M16.3243 37.5618L16.3212 38.9722H15.9344V37.5618H15.6221V37.2129H15.9344V37.1425C15.9344 36.6962 16.1137 36.5244 16.5349 36.5244H16.7455V36.8548H16.5905C16.3611 36.8548 16.3243 36.9066 16.3243 37.1913V37.2129H16.7423V37.5618H16.3243Z" fill="#77478C"/>
<path d="M16.9626 36.7572C16.9626 36.5614 17.0558 36.4941 17.232 36.4941C17.4081 36.4941 17.5013 36.5614 17.5013 36.7572C17.5013 36.9467 17.4112 37.0233 17.232 37.0233C17.037 37.0233 16.9626 36.956 16.9626 36.7572ZM17.0214 38.9713V37.2128H17.4331V38.9713H17.0214Z" fill="#77478C"/>
<path d="M17.7539 38.1274V38.0817C17.7539 37.4915 18.1375 37.1704 18.6511 37.1704C19.1404 37.1704 19.4778 37.4056 19.5208 37.9139V37.9201H19.0965V37.9108C19.0597 37.6385 18.9016 37.5131 18.6542 37.5131C18.3692 37.5131 18.1743 37.7119 18.1743 38.0817V38.1212C18.1743 38.467 18.3536 38.6658 18.6511 38.6658C18.9078 38.6658 19.0597 38.5374 19.0996 38.262V38.2589H19.524V38.2682C19.484 38.7881 19.1404 39.0178 18.6479 39.0178C18.0819 39.0178 17.7539 38.6991 17.7539 38.1274Z" fill="#77478C"/>
<path d="M19.7815 36.7572C19.7815 36.5614 19.8747 36.4941 20.0508 36.4941C20.2269 36.4941 20.3201 36.5614 20.3201 36.7572C20.3201 36.9467 20.2301 37.0233 20.0508 37.0233C19.8559 37.0233 19.7815 36.956 19.7815 36.7572ZM19.8402 38.9713V37.2128H20.252V38.9713H19.8402Z" fill="#77478C"/>
<path d="M21.8797 38.6202C21.7592 38.85 21.5204 39.0178 21.1525 39.0178C20.7689 39.0178 20.5708 38.8345 20.5708 38.5467C20.5708 38.351 20.6577 38.204 20.8025 38.115C20.9544 38.0199 21.0781 37.999 21.4155 37.9471C21.731 37.9077 21.861 37.8644 21.861 37.7205C21.861 37.5735 21.7615 37.4822 21.4867 37.4822C21.1924 37.4822 21.0593 37.6106 21.0476 37.8342H20.6295C20.6577 37.4365 20.9575 37.1704 21.4648 37.1704C22.0402 37.1704 22.2508 37.4087 22.2508 37.7854V38.9722H21.9228L21.8797 38.6202ZM21.8641 38.1761V38.081C21.7897 38.1359 21.666 38.1699 21.5048 38.1939C21.2879 38.2272 21.1987 38.2519 21.118 38.3038C21.0436 38.3525 21.0131 38.4043 21.0131 38.4871C21.0131 38.6279 21.1031 38.7076 21.2918 38.7076C21.641 38.7084 21.8641 38.4306 21.8641 38.1761Z" fill="#77478C"/>
<path d="M22.6577 38.9714V36.6165H23.0632V38.9714H22.6577Z" fill="#77478C"/>
<path d="M25.8739 38.0724H24.9329V38.9714H24.5273V36.7905H24.9329V37.6895H25.8739V36.7905H26.2763V38.9714H25.8739V38.0724Z" fill="#77478C"/>
<path d="M26.6206 38.1274V38.0817C26.6206 37.4915 27.0011 37.1704 27.5178 37.1704C28.0438 37.1704 28.4157 37.5007 28.4157 38.0817V38.1274C28.4157 38.6991 28.0532 39.0171 27.5178 39.0171C26.9463 39.0178 26.6206 38.6991 26.6206 38.1274ZM28.0047 38.1212V38.0817C28.0047 37.7236 27.8129 37.5131 27.5217 37.5131C27.2336 37.5131 27.0355 37.7119 27.0355 38.0817V38.1212C27.0355 38.467 27.2179 38.6658 27.5185 38.6658C27.8215 38.6658 28.0047 38.4701 28.0047 38.1212Z" fill="#77478C"/>
<path d="M29.1541 38.9714H28.7485V37.213H29.0891L29.1259 37.534C29.219 37.3135 29.4077 37.1704 29.6895 37.1704C29.9925 37.1704 30.1726 37.3081 30.2501 37.5371C30.3401 37.3135 30.5382 37.1704 30.8255 37.1704C31.2435 37.1704 31.4564 37.4334 31.4564 37.8705V38.9714H31.0509V37.9804C31.0509 37.705 30.9515 37.5185 30.6799 37.5185C30.4168 37.5185 30.3088 37.7081 30.3088 37.9742V38.9714H29.9064V37.9649C29.9064 37.7174 29.8195 37.5185 29.5439 37.5185C29.2809 37.5185 29.1541 37.7266 29.1541 38.0291V38.9714Z" fill="#77478C"/>
<path d="M32.6744 39.0178C32.0739 39.0178 31.7795 38.6751 31.7795 38.1312V38.0887C31.7795 37.5286 32.1326 37.1711 32.6861 37.1711C33.2991 37.1711 33.5559 37.6051 33.5559 38.0554V38.2418H32.1819C32.2156 38.5296 32.3957 38.6882 32.6892 38.6882C32.9029 38.6882 33.0329 38.6023 33.0947 38.453H33.5308C33.4267 38.8066 33.1386 39.0178 32.6744 39.0178ZM32.1851 37.9254H33.1511C33.1229 37.6562 32.975 37.4883 32.69 37.4883C32.4082 37.4883 32.2289 37.6469 32.1851 37.9254Z" fill="#77478C"/>
<path d="M34.8313 38.1274V38.0817C34.8313 37.4915 35.2118 37.1704 35.7285 37.1704C36.2545 37.1704 36.6264 37.5007 36.6264 38.0817V38.1274C36.6264 38.6991 36.2639 39.0171 35.7285 39.0171C35.1562 39.0178 34.8313 38.6991 34.8313 38.1274ZM36.2146 38.1212V38.0817C36.2146 37.7236 36.0228 37.5131 35.7316 37.5131C35.4435 37.5131 35.2454 37.7119 35.2454 38.0817V38.1212C35.2454 38.467 35.4278 38.6658 35.7285 38.6658C36.0322 38.6658 36.2146 38.4701 36.2146 38.1212Z" fill="#77478C"/>
<path d="M37.4749 37.5618L37.4718 38.9722H37.0851V37.5618H36.7727V37.2129H37.0851V37.1425C37.0851 36.6962 37.2643 36.5244 37.6855 36.5244H37.8961V36.8548H37.7411C37.5117 36.8548 37.4749 36.9066 37.4749 37.1913V37.2129H37.893V37.5618H37.4749Z" fill="#77478C"/>
<path d="M40.4523 38.4824H39.5763L39.4095 38.9721H38.9946L39.7963 36.7913H40.2175L41.0379 38.9721H40.6261L40.4523 38.4824ZM39.6906 38.1428H40.331L40.028 37.2864L40.0061 37.1672L39.9842 37.2864L39.6906 38.1428Z" fill="#77478C"/>
<path d="M42.4086 38.6349C42.3155 38.8638 42.1237 39.0077 41.8332 39.0077C41.4089 39.0077 41.2046 38.7385 41.2046 38.3014V37.2122H41.6101V38.1908C41.6101 38.4662 41.697 38.6557 41.9726 38.6557C42.2419 38.6557 42.3781 38.4384 42.3781 38.1266V37.2122H42.7868V38.9706H42.4462L42.4086 38.6349Z" fill="#77478C"/>
<path d="M43.0723 38.3905H43.5115C43.5482 38.5986 43.697 38.6813 43.9475 38.6813C44.2074 38.6813 44.31 38.5955 44.31 38.4547C44.31 38.2922 44.0806 38.2713 43.8269 38.2342C43.5083 38.1885 43.1521 38.1212 43.1521 37.7267C43.1521 37.4056 43.3964 37.1697 43.8857 37.1697C44.393 37.1697 44.6286 37.3902 44.6779 37.7383H44.263C44.2348 37.5673 44.1174 37.4907 43.8825 37.4907C43.632 37.4907 43.5514 37.5797 43.5514 37.7019C43.5514 37.8644 43.7808 37.8853 44.0375 37.9224C44.3562 37.9681 44.7124 38.0354 44.7124 38.4299C44.7124 38.7695 44.4618 39.0171 43.9389 39.0171C43.3948 39.0179 43.1255 38.7974 43.0723 38.3905Z" fill="#77478C"/>
<path d="M46.0613 38.9712H45.8328C45.3309 38.9712 45.2135 38.8002 45.2135 38.2679V37.5678H44.8667V37.2282H45.0248C45.1916 37.2282 45.226 37.1856 45.2386 36.9713C45.2417 36.8948 45.2448 36.7911 45.2448 36.7393H45.5916V37.2135H46.0621V37.5686H45.5916V38.2014C45.5916 38.5503 45.6378 38.5991 45.9353 38.5991H46.0621V38.9712H46.0613Z" fill="#77478C"/>
<path d="M46.3762 38.9712V37.2127H46.7042L46.7567 37.6259C46.8248 37.3381 47.0135 37.1973 47.3477 37.1973H47.4683V37.6042H47.2922C46.8741 37.6042 46.7755 37.7512 46.7755 38.1581V38.972H46.3762V38.9712Z" fill="#77478C"/>
<path d="M48.9361 38.6202C48.8156 38.85 48.5768 39.0178 48.2089 39.0178C47.8253 39.0178 47.6272 38.8345 47.6272 38.5467C47.6272 38.351 47.7141 38.204 47.8589 38.115C48.0108 38.0199 48.1345 37.999 48.4719 37.9471C48.7874 37.9077 48.9173 37.8644 48.9173 37.7205C48.9173 37.5735 48.8179 37.4822 48.5431 37.4822C48.2488 37.4822 48.1157 37.6106 48.104 37.8342H47.6859C47.7141 37.4365 48.0139 37.1704 48.5212 37.1704C49.0966 37.1704 49.3072 37.4087 49.3072 37.7854V38.9722H48.9792L48.9361 38.6202ZM48.9213 38.1761V38.081C48.8469 38.1359 48.7232 38.1699 48.5619 38.1939C48.3451 38.2272 48.2558 38.2519 48.1752 38.3038C48.1008 38.3525 48.0703 38.4043 48.0703 38.4871C48.0703 38.6279 48.1603 38.7076 48.349 38.7076C48.6982 38.7084 48.9213 38.4306 48.9213 38.1761Z" fill="#77478C"/>
<path d="M49.7151 38.9714V36.6165H50.1206V38.9714H49.7151Z" fill="#77478C"/>
<path d="M50.4775 36.7572C50.4775 36.5614 50.5707 36.4941 50.7468 36.4941C50.923 36.4941 51.0161 36.5614 51.0161 36.7572C51.0161 36.9467 50.9261 37.0233 50.7468 37.0233C50.5511 37.0233 50.4775 36.956 50.4775 36.7572ZM50.5363 38.9713V37.2128H50.948V38.9713H50.5363Z" fill="#77478C"/>
<path d="M52.5748 38.6202C52.4543 38.85 52.2155 39.0178 51.8475 39.0178C51.4639 39.0178 51.2659 38.8345 51.2659 38.5467C51.2659 38.351 51.3528 38.204 51.4976 38.115C51.6495 38.0199 51.7732 37.999 52.1106 37.9471C52.4261 37.9077 52.556 37.8644 52.556 37.7205C52.556 37.5735 52.4566 37.4822 52.1818 37.4822C51.8875 37.4822 51.7544 37.6106 51.7426 37.8342H51.3246C51.3528 37.4365 51.6526 37.1704 52.1599 37.1704C52.7353 37.1704 52.9459 37.4087 52.9459 37.7854V38.9722H52.6179L52.5748 38.6202ZM52.5592 38.1761V38.081C52.4848 38.1359 52.3611 38.1699 52.1998 38.1939C51.983 38.2272 51.8937 38.2519 51.8131 38.3038C51.7387 38.3525 51.7082 38.4043 51.7082 38.4871C51.7082 38.6279 51.7982 38.7076 51.9869 38.7076C52.3368 38.7084 52.5592 38.4306 52.5592 38.1761Z" fill="#77478C"/>
<path d="M53.3038 37.448C53.4275 37.4325 53.4987 37.3474 53.5144 37.1973C53.5018 37.2004 53.4893 37.2004 53.4744 37.2004C53.3319 37.2004 53.2764 37.164 53.2764 36.9892C53.2764 36.8213 53.3413 36.7656 53.5026 36.7656C53.6756 36.7656 53.7406 36.8391 53.7406 37.0774C53.7406 37.3861 53.6075 37.5756 53.3319 37.6158L53.3038 37.448Z" fill="#77478C"/>
<path d="M53.9275 38.3905H54.3667C54.4035 38.5986 54.5522 38.6813 54.8027 38.6813C55.0626 38.6813 55.1652 38.5955 55.1652 38.4547C55.1652 38.2922 54.9358 38.2713 54.6822 38.2342C54.3635 38.1885 54.0073 38.1212 54.0073 37.7267C54.0073 37.4056 54.2516 37.1697 54.7409 37.1697C55.2482 37.1697 55.4838 37.3902 55.5331 37.7383H55.1182C55.09 37.5673 54.9726 37.4907 54.7378 37.4907C54.4872 37.4907 54.4066 37.5797 54.4066 37.7019C54.4066 37.8644 54.636 37.8853 54.8928 37.9224C55.2114 37.9681 55.5676 38.0354 55.5676 38.4299C55.5676 38.7695 55.3171 39.0171 54.7941 39.0171C54.2492 39.0179 53.9799 38.7974 53.9275 38.3905Z" fill="#77478C"/>
<path d="M56.9165 38.9714V36.7905H57.3252V38.5954H58.3898V38.9714H56.9165Z" fill="#77478C"/>
<path d="M58.5911 38.1274V38.0817C58.5911 37.4915 58.9715 37.1704 59.4882 37.1704C60.0143 37.1704 60.3862 37.5007 60.3862 38.0817V38.1274C60.3862 38.6991 60.0237 39.0171 59.4882 39.0171C58.916 39.0178 58.5911 38.6991 58.5911 38.1274ZM59.9744 38.1212V38.0817C59.9744 37.7236 59.7826 37.5131 59.4914 37.5131C59.2033 37.5131 59.0052 37.7119 59.0052 38.0817V38.1212C59.0052 38.467 59.1876 38.6658 59.4882 38.6658C59.792 38.6658 59.9744 38.4701 59.9744 38.1212Z" fill="#77478C"/>
<path d="M61.7264 38.9712H61.4978C60.996 38.9712 60.8785 38.8002 60.8785 38.2679V37.5678H60.5317V37.2282H60.6899C60.8566 37.2282 60.8911 37.1856 60.9036 36.9713C60.9067 36.8948 60.9099 36.7911 60.9099 36.7393H61.2567V37.2135H61.7272V37.5686H61.2567V38.2014C61.2567 38.5503 61.3029 38.5991 61.6003 38.5991H61.7272V38.9712H61.7264Z" fill="#77478C"/>
<path d="M63.1065 38.9712H62.8779C62.3761 38.9712 62.2587 38.8002 62.2587 38.2679V37.5678H61.9119V37.2282H62.07C62.2367 37.2282 62.2712 37.1856 62.2837 36.9713C62.2869 36.8948 62.29 36.7911 62.29 36.7393H62.6368V37.2135H63.1073V37.5686H62.6368V38.2014C62.6368 38.5503 62.683 38.5991 62.9805 38.5991H63.1073V38.9712H63.1065Z" fill="#77478C"/>
<path d="M64.1941 39.0178C63.5937 39.0178 63.2993 38.6751 63.2993 38.1312V38.0887C63.2993 37.5286 63.6524 37.1711 64.2059 37.1711C64.8188 37.1711 65.0756 37.6051 65.0756 38.0554V38.2418H63.7017C63.7354 38.5296 63.9154 38.6882 64.209 38.6882C64.4227 38.6882 64.5527 38.6023 64.6145 38.453H65.0506C64.9465 38.8066 64.6584 39.0178 64.1941 39.0178ZM63.7048 37.9254H64.6709C64.6427 37.6562 64.4947 37.4883 64.2098 37.4883C63.928 37.4883 63.7487 37.6469 63.7048 37.9254Z" fill="#77478C"/>
<path d="M65.4075 38.9712V37.2127H65.7355L65.7879 37.6259C65.856 37.3381 66.0447 37.1973 66.379 37.1973H66.4996V37.6042H66.3234C65.9054 37.6042 65.8067 37.7512 65.8067 38.1581V38.972H65.4075V38.9712Z" fill="#77478C"/>
<path d="M66.6953 36.7572C66.6953 36.5614 66.7885 36.4941 66.9646 36.4941C67.1408 36.4941 67.2339 36.5614 67.2339 36.7572C67.2339 36.9467 67.1439 37.0233 66.9646 37.0233C66.7697 37.0233 66.6953 36.956 66.6953 36.7572ZM66.754 38.9713V37.2128H67.1658V38.9713H66.754Z" fill="#77478C"/>
<path d="M68.3809 39.0178C67.7804 39.0178 67.4861 38.6751 67.4861 38.1312V38.0887C67.4861 37.5286 67.8392 37.1711 68.3926 37.1711C69.0056 37.1711 69.2624 37.6051 69.2624 38.0554V38.2418H67.8885C67.9221 38.5296 68.1022 38.6882 68.3958 38.6882C68.6095 38.6882 68.7394 38.6023 68.8013 38.453H69.2373C69.1332 38.8066 68.8459 39.0178 68.3809 39.0178ZM67.8924 37.9254H68.8584C68.8302 37.6562 68.6823 37.4883 68.3973 37.4883C68.1147 37.4883 67.9354 37.6469 67.8924 37.9254Z" fill="#77478C"/>
<path d="M69.4688 38.3905H69.9079C69.9447 38.5986 70.0935 38.6813 70.344 38.6813C70.6039 38.6813 70.7065 38.5955 70.7065 38.4547C70.7065 38.2922 70.4771 38.2713 70.2234 38.2342C69.9048 38.1885 69.5486 38.1212 69.5486 37.7267C69.5486 37.4056 69.7929 37.1697 70.2821 37.1697C70.7894 37.1697 71.0251 37.3902 71.0744 37.7383H70.6595C70.6313 37.5673 70.5139 37.4907 70.279 37.4907C70.0285 37.4907 69.9479 37.5797 69.9479 37.7019C69.9479 37.8644 70.1772 37.8853 70.434 37.9224C70.7526 37.9681 71.1088 38.0354 71.1088 38.4299C71.1088 38.7695 70.8583 39.0171 70.3354 39.0171C69.7913 39.0179 69.5212 38.7974 69.4688 38.3905Z" fill="#77478C"/>
</svg>
