<svg width="129" height="47" viewBox="0 0 129 47" fill="none" xmlns="http://www.w3.org/2000/svg">
<g clip-path="url(#clip0)">
<path d="M18.0061 11.8569V10.1703H15.4947V2.5316H18.414V0.844971L13.8081 0.847217V21.3541H18.4769V19.6675H15.4947V11.8569H18.0061Z" fill="white"/>
<path d="M0.450928 2.50864H2.33195V21.3548H4.01745V2.50864H5.89847V0.822021H0.450928V2.50864Z" fill="white"/>
<path d="M8.75142 0.821533H7.06592V21.3543H8.75142V11.4188H10.3729V21.3543H12.0584V0.821533H10.3729V9.73333H8.75142V0.821533Z" fill="white"/>
<path d="M73.2738 21.2789C72.3793 20.7598 72.2692 17.1292 72.2692 17.1292V16.0089C72.2692 14.1178 70.8635 12.5424 69.0454 12.2671C71.1455 11.5176 72.6602 9.50511 72.6602 7.1544V6.25097C72.6602 3.26651 70.2185 0.824783 67.2341 0.824783L50.7072 0.777588C50.7072 0.777588 50.7072 9.78715 50.7072 11.9626C50.7072 18.354 49.7588 21.4587 49.7588 21.4587H59.3077V14.3796H61.691C63.4675 14.3796 64.9216 15.8336 64.9216 17.6101C64.9216 17.6596 64.9159 17.709 64.9137 17.7573H64.9216V21.3396H71.4186H73.258C73.2917 21.3407 73.3041 21.2969 73.2738 21.2789ZM64.0192 10.031H59.3077V7.50498H64.0192C64.7137 7.50498 65.2823 8.07356 65.2823 8.76799C65.2823 9.46241 64.7148 10.031 64.0192 10.031Z" fill="white"/>
<path d="M49.1755 14.529C48.3755 12.8098 46.3843 11.5153 44.6067 11.0063C44.0673 10.8523 43.6808 10.6804 42.9392 10.4602C44.2876 10.0388 45.7191 9.70171 46.8068 8.74322C48.3732 7.36336 48.5699 4.50026 47.1372 2.95521C45.7865 1.49782 44.0336 0.846092 42.1301 0.824742C36.1444 0.756198 20.3501 0.778671 20.3501 0.778671V8.42859L23.7144 8.41399C23.1121 9.10504 23.0907 10.2456 23.0952 11.1535C23.1132 14.5335 22.6648 18.0124 21.9951 21.4362C22.4592 21.4879 22.8143 21.435 23.1289 21.435C25.0482 21.435 26.9662 21.4362 28.8855 21.4362C28.8956 21.435 32.4846 20.8811 32.4846 16.6853V21.435C35.9634 21.4339 39.4434 21.4294 42.9223 21.4126C45.3551 21.4013 48.2777 19.9046 49.2407 17.5494C49.6879 16.4594 49.5969 15.4347 49.1755 14.529ZM32.8644 9.45113V7.92632V7.09368H37.6602C38.3546 7.09368 38.9232 7.66225 38.9232 8.35668C38.9232 9.0511 38.3546 9.61968 37.6602 9.61968H32.8644V9.45113ZM40.0233 13.4312C40.0233 14.1256 39.4547 14.6942 38.7603 14.6942H32.8644V14.1357V12.1682H38.7603H38.8266C39.0052 12.1682 39.1715 12.2165 39.3153 12.2996C39.7334 12.5064 40.0233 12.9356 40.0233 13.4312Z" fill="white"/>
<path d="M108.178 22.4441C108.178 22.4441 114.684 22.7228 116.969 17.9438C116.969 17.9438 116.654 19.9114 116.407 21.3766C116.411 21.3744 116.417 21.3721 116.421 21.3699L116.344 21.4587H124.835C124.835 21.4587 124.372 18.5012 124.372 15.5246C124.372 12.548 124.835 10.013 124.835 10.013L117.324 9.88153L123.394 6.49367C120.661 2.35745 118.756 0 110.073 0C101.977 0 97.51 5.25764 97.51 10.8108C97.5089 18.9304 101.968 22.4441 108.178 22.4441ZM112.082 16.3572C109.951 16.3572 108.559 14.4874 108.559 12.1817C108.559 9.87479 109.951 8.00613 112.082 8.00613C113.883 8.00613 115.195 8.35447 115.557 9.85681L112.082 9.79389L112.597 14.9605L115.724 15.0403C115.309 15.8257 114.3 16.3572 112.082 16.3572Z" fill="white"/>
<path d="M93.3792 1.39229C93.2118 0.577627 92.8219 0.698983 91.9903 0.686623L78.2513 0.706848L74.0139 21.3407H82.5178L82.9179 19.1979H87.1046H88.7463H89.9666C89.9666 19.1979 88.8295 19.644 88.9755 20.4216L89.1475 21.3396H97.6514L93.3792 1.39229ZM84.0337 13.9448L85.8326 5.12398L87.6316 13.9448H84.0337Z" fill="white"/>
<path d="M33.7658 46.5426H24.2064V35.7683L23.5507 37.2566L19.5396 46.5414H13.7581L9.71563 37.2541L9.08996 35.8021V46.5414H0.450928V23.9407C0.450928 23.6259 0.706706 23.3689 1.02268 23.3689H13.1863L17.0193 32.3879L17.4118 33.3709L17.8193 32.3904L21.6235 23.3689H33.1464C33.4874 23.3689 33.7658 23.646 33.7658 23.9883V46.5426ZM24.9174 45.8317H33.0549V24.0811H22.0962L18.4763 32.6662L17.3992 35.2592L16.3636 32.6599L12.7174 24.0811H1.16311V45.8317H8.38029V32.354L10.3689 36.9732L14.2245 45.8317H19.0731L22.8999 36.9732L24.9174 32.3891V45.8317Z" fill="white"/>
<path d="M58.8054 46.5426H35.6467V23.3701H58.8054V29.5729H45.176V31.4499H57.3948V36.9594H45.176V39.106L58.8054 39.1799V46.5426ZM36.3577 45.8316H58.0945V39.8859L44.4651 39.8119V36.2472H56.6839V32.1596H44.4651V28.8607H58.0945V24.0798H36.3577V45.8316Z" fill="white"/>
<path d="M73.8253 46.5426H60.5532V23.3701H73.8253C77.553 23.3701 80.9296 24.5475 83.3332 26.6853C85.6842 28.7767 86.9782 31.6418 86.9782 34.7551V35.125C86.9782 38.2145 85.6842 41.077 83.3345 43.1848C80.9195 45.3502 77.5429 46.5426 73.8253 46.5426ZM61.2642 45.8316H73.8253C77.3674 45.8316 80.576 44.7032 82.8593 42.6556C85.0573 40.6846 86.2672 38.0101 86.2672 35.125V34.7551C86.2672 31.8474 85.0573 29.1704 82.8605 27.2169C80.5873 25.1957 77.3787 24.0823 73.8253 24.0823H61.2642V45.8316ZM73.409 40.4376H69.4017V29.4062H73.409C76.0834 29.4062 77.9504 31.564 77.9504 34.6523V35.1914C77.9517 38.2809 76.0834 40.4376 73.409 40.4376ZM70.1126 39.7266H73.409C76.0408 39.7266 77.2395 37.3757 77.2395 35.1914V34.6523C77.2395 32.4681 76.0408 30.1171 73.409 30.1171H70.1126V39.7266Z" fill="white"/>
<path d="M98.0671 46.5426H88.5378V24.0547C88.5378 23.6773 88.845 23.3701 89.2225 23.3701H98.0671V46.5426ZM89.2488 45.8316H97.3562V24.081H89.2488V45.8316Z" fill="white"/>
<path d="M128.513 46.5426H118.198L116.833 42.6644H109.13L107.587 46.5426H99.1858L108.621 23.3701H117.797C118.464 23.3701 119.061 23.7688 119.316 24.3845L128.513 46.5426ZM118.702 45.8316H127.449L118.659 24.6578C118.514 24.308 118.175 24.081 117.795 24.081H109.098L100.242 45.8316H107.103L108.646 41.9535H117.334L118.702 45.8316ZM115.801 37.5035H110.363L113.244 28.3918L115.801 37.5035ZM111.334 36.7926H114.864L113.204 30.8782L111.334 36.7926Z" fill="white"/>
</g>
<defs>
<clipPath id="clip0">
<rect width="128.098" height="47" fill="white" transform="translate(0.450928)"/>
</clipPath>
</defs>
</svg>
