<svg width="132" height="40" viewBox="0 0 132 40" fill="none" xmlns="http://www.w3.org/2000/svg">
<path d="M19.7687 0C8.85096 0 0 8.85073 0 19.7684C0 30.6866 8.85096 39.5366 19.7687 39.5366C30.6875 39.5366 39.5376 30.6866 39.5376 19.7684C39.5376 8.85144 30.6878 0 19.7687 0ZM28.8344 28.5117C28.7501 28.65 28.6393 28.7702 28.5084 28.8656C28.3775 28.9609 28.2291 29.0295 28.0717 29.0675C27.9142 29.1054 27.7509 29.1119 27.5909 29.0866C27.431 29.0614 27.2776 29.0048 27.1395 28.9201C22.498 26.085 16.655 25.4429 9.77374 27.0151C9.4551 27.0876 9.12074 27.0305 8.84413 26.8566C8.56751 26.6826 8.37129 26.4059 8.29858 26.0874C8.26236 25.9296 8.25761 25.7663 8.28461 25.6067C8.31161 25.4471 8.36982 25.2945 8.45591 25.1574C8.54199 25.0204 8.65427 24.9017 8.7863 24.8081C8.91834 24.7145 9.06754 24.6478 9.22536 24.612C16.7558 22.8915 23.2152 23.6323 28.4261 26.8168C29.0068 27.1733 29.1909 27.931 28.8344 28.5117ZM31.2541 23.129C30.8079 23.8542 29.859 24.0832 29.1342 23.637C23.8205 20.3709 15.7204 19.425 9.43522 21.3328C8.62009 21.579 7.75917 21.1197 7.51178 20.3059C7.39373 19.9147 7.43564 19.4927 7.62831 19.1323C7.82099 18.772 8.14871 18.5028 8.5396 18.3837C15.719 16.2053 24.6443 17.2605 30.7466 21.0104C31.4713 21.4565 31.7003 22.4053 31.2541 23.129ZM31.4618 17.5239C25.0905 13.7396 14.5786 13.3916 8.49545 15.2379C7.51862 15.5342 6.48561 14.9827 6.18958 14.0059C6.04724 13.5366 6.09712 13.0299 6.32824 12.5974C6.55936 12.1649 6.95281 11.8418 7.42207 11.6993C14.4051 9.57946 26.0135 9.98903 33.3489 14.3437C33.558 14.4674 33.7406 14.6311 33.8863 14.8254C34.032 15.0198 34.1379 15.241 34.198 15.4763C34.2581 15.7117 34.2711 15.9566 34.2364 16.197C34.2017 16.4374 34.1199 16.6686 33.9957 16.8774C33.4764 17.756 32.3376 18.0456 31.4618 17.5239ZM53.784 18.2491C50.3705 17.4352 49.7638 16.8639 49.7638 15.6635C49.7638 14.5295 50.8308 13.7663 52.4195 13.7663C53.9587 13.7663 55.4837 14.3458 57.0842 15.5389C57.1314 15.575 57.1928 15.5894 57.2518 15.58C57.2815 15.5757 57.31 15.5654 57.3355 15.5497C57.3611 15.5341 57.3832 15.5133 57.4005 15.4888L59.0671 13.1395C59.1 13.0929 59.1139 13.0356 59.106 12.9791C59.0981 12.9226 59.069 12.8713 59.0246 12.8355C57.1196 11.3074 54.9761 10.5645 52.4691 10.5645C48.7842 10.5645 46.2087 12.7762 46.2087 15.9407C46.2087 19.3341 48.4301 20.5356 52.2685 21.4631C55.5332 22.2155 56.0856 22.8458 56.0856 23.9722C56.0856 25.221 54.9714 25.9977 53.1773 25.9977C51.1849 25.9977 49.5585 25.3249 47.7408 23.7527C47.6954 23.7144 47.6371 23.6949 47.5779 23.6984C47.5165 23.7031 47.4622 23.7315 47.4244 23.7763L45.5548 26C45.4769 26.0945 45.4864 26.2314 45.5761 26.3116C47.6912 28.2001 50.2926 29.1963 53.1018 29.1963C57.0724 29.1963 59.6384 27.0269 59.6384 23.6677C59.6454 20.8333 57.9482 19.2635 53.7911 18.2522L53.784 18.2491ZM68.6229 14.8829C66.902 14.8829 65.4904 15.5608 64.3242 16.9501V15.3864C64.3245 15.3273 64.3013 15.2705 64.2596 15.2284C64.218 15.1864 64.1614 15.1627 64.1023 15.1624H61.0453C60.9226 15.1624 60.8234 15.2629 60.8234 15.3864V32.7609C60.8234 32.8836 60.9226 32.9851 61.0453 32.9851H64.1023C64.2251 32.9851 64.3242 32.8836 64.3242 32.7609V27.2771C65.4904 28.5826 66.902 29.2223 68.6229 29.2223C71.8216 29.2223 75.0604 26.7602 75.0604 22.0533C75.0651 17.3455 71.8263 14.8826 68.6253 14.8826L68.6229 14.8829ZM71.5053 22.0533C71.5053 24.4491 70.0299 26.1228 67.9148 26.1228C65.8256 26.1228 64.2487 24.3736 64.2487 22.0533C64.2487 19.7328 65.8256 17.984 67.9148 17.984C69.9945 17.9838 71.5053 19.695 71.5053 22.0533ZM83.358 14.8829C79.2387 14.8829 76.0117 18.0546 76.0117 22.1045C76.0117 26.111 79.2175 29.2483 83.3085 29.2483C87.4419 29.2483 90.6784 26.0874 90.6784 22.0533C90.6784 18.0329 87.4632 14.8829 83.358 14.8829ZM83.358 26.1464C81.1674 26.1464 79.5149 24.3854 79.5149 22.0521C79.5149 19.7082 81.1107 18.0074 83.3085 18.0074C85.5133 18.0074 87.1752 19.7677 87.1752 22.1033C87.1752 24.4467 85.5699 26.1464 83.358 26.1464ZM99.4741 15.1624H96.1102V11.7239C96.1103 11.6946 96.1047 11.6656 96.0936 11.6385C96.0825 11.6114 96.0662 11.5868 96.0456 11.566C96.025 11.5452 96.0005 11.5287 95.9735 11.5174C95.9465 11.5061 95.9175 11.5002 95.8883 11.5001H92.8313C92.7085 11.5001 92.607 11.6006 92.607 11.7239V15.1624H91.1387C91.0159 15.1624 90.9168 15.2629 90.9168 15.3864V18.0131C90.9168 18.1363 91.0159 18.2371 91.1387 18.2371H92.607V25.0345C92.607 27.7799 93.9738 29.1727 96.672 29.1727C97.7673 29.1727 98.6762 28.9461 99.5331 28.4598C99.6039 28.422 99.6464 28.3465 99.6464 28.2662V25.764C99.6464 25.6884 99.6063 25.6152 99.5402 25.5751C99.508 25.5546 99.471 25.5429 99.4329 25.5412C99.3947 25.5395 99.3568 25.548 99.323 25.5657C98.7352 25.8608 98.1663 25.9977 97.5289 25.9977C96.5493 25.9977 96.1102 25.5515 96.1102 24.5553V18.2383H99.4741C99.5968 18.2383 99.696 18.1377 99.696 18.0142V15.3878C99.697 15.3585 99.692 15.3293 99.6814 15.302C99.6708 15.2746 99.6547 15.2497 99.6342 15.2288C99.6137 15.2078 99.5891 15.1913 99.562 15.1801C99.5349 15.1689 99.5058 15.1634 99.4764 15.1638L99.4741 15.1624ZM111.192 15.1758V14.7535C111.192 13.5111 111.669 12.9571 112.736 12.9571C113.373 12.9571 113.886 13.0836 114.459 13.2748C114.53 13.297 114.603 13.2859 114.66 13.2436C114.689 13.2229 114.712 13.1956 114.728 13.1639C114.744 13.1323 114.752 13.0973 114.752 13.0619V10.4864C114.753 10.4383 114.738 10.3913 114.709 10.3526C114.68 10.3139 114.64 10.2855 114.594 10.2718C113.99 10.0917 113.215 9.90688 112.054 9.90688C109.233 9.90688 107.739 11.4965 107.739 14.5023V15.1491H106.27C106.148 15.1491 106.046 15.2497 106.046 15.3729V18.0131C106.046 18.1363 106.148 18.2371 106.27 18.2371H107.739V28.7195C107.739 28.8446 107.84 28.9437 107.963 28.9437H111.018C111.143 28.9437 111.242 28.8446 111.242 28.7195V18.2378H114.096L118.468 28.7195C117.972 29.8195 117.483 30.0391 116.818 30.0391C116.279 30.0391 115.711 29.8786 115.132 29.5599C115.077 29.5322 115.014 29.5263 114.955 29.5433C114.896 29.5646 114.847 29.6071 114.823 29.6637L113.787 31.937C113.737 32.0456 113.78 32.1707 113.883 32.2274C114.965 32.8128 115.94 33.063 117.146 33.063C119.403 33.063 120.651 32.0102 121.749 29.1822L127.051 15.4818C127.065 15.4479 127.07 15.4111 127.066 15.3748C127.062 15.3384 127.048 15.3037 127.027 15.2738C127.007 15.2438 126.98 15.2193 126.949 15.2023C126.917 15.1854 126.882 15.1765 126.846 15.1765H123.664C123.567 15.1765 123.482 15.2372 123.451 15.3267L120.191 24.6356L116.622 15.3205C116.606 15.2783 116.577 15.2419 116.54 15.2162C116.503 15.1905 116.459 15.1767 116.414 15.1765L111.192 15.1758ZM104.398 15.1624H101.341C101.219 15.1624 101.117 15.2629 101.117 15.3864V28.7195C101.117 28.8446 101.219 28.9437 101.341 28.9437H104.398C104.521 28.9437 104.623 28.8446 104.623 28.7195V15.3873C104.623 15.3579 104.617 15.3287 104.606 15.3015C104.594 15.2742 104.578 15.2495 104.557 15.2287C104.536 15.2079 104.511 15.1914 104.484 15.1802C104.457 15.1689 104.428 15.1623 104.398 15.1624ZM102.888 9.09104C101.677 9.09104 100.695 10.0712 100.695 11.2819C100.695 11.5699 100.751 11.8551 100.861 12.1211C100.972 12.3872 101.133 12.6289 101.337 12.8326C101.541 13.0362 101.782 13.1977 102.048 13.3079C102.314 13.4181 102.6 13.4748 102.888 13.4747C104.099 13.4747 105.078 12.4934 105.078 11.2819C105.078 10.0714 104.096 9.09104 102.888 9.09104ZM129.662 19.4495C128.453 19.4495 127.511 18.4781 127.511 17.2985C127.511 16.1189 128.465 15.1364 129.674 15.1364C130.882 15.1364 131.824 16.1076 131.824 17.2862C131.824 18.4658 130.871 19.4495 129.662 19.4495ZM129.674 15.3503C128.571 15.3503 127.738 16.2261 127.738 17.2985C127.738 18.3705 128.567 19.2345 129.662 19.2345C130.764 19.2345 131.598 18.3594 131.598 17.2862C131.598 16.2143 130.769 15.3503 129.674 15.3503ZM130.151 17.5074L130.76 18.3591H130.245L129.697 17.5778H129.228V18.3591H128.798V16.1014H129.804C130.33 16.1014 130.675 16.3698 130.675 16.8216C130.677 17.1918 130.462 17.4179 130.153 17.5074H130.151ZM129.787 16.4888H129.228V17.2029H129.787C130.066 17.2029 130.233 17.0662 130.233 16.8455C130.233 16.6132 130.066 16.4888 129.787 16.4888Z" fill="white"/>
</svg>
