<svg width="112" height="31" viewBox="0 0 112 31" fill="none" xmlns="http://www.w3.org/2000/svg">
<path fill-rule="evenodd" clip-rule="evenodd" d="M78.962 5.66652C74.4723 8.94332 71.986 13.3697 71.9993 17.7989C72.021 24.3647 77.5176 30.688 90.2529 30.6474C93.4137 30.6269 96.2014 30.3183 98.7361 29.9019C99.4755 29.7859 100.201 29.6571 100.888 29.52L102.369 23.4083C99.9012 24.2054 96.7826 24.8643 94.2835 24.8749C87.5012 24.8954 82.9538 21.0102 82.9438 15.9149C82.9327 13.1993 84.0879 10.8146 86.1768 9.06989C88.4138 7.20029 91.7117 6.06954 95.8362 6.06954C99.1019 6.06954 101.012 6.94215 102.315 8.18726C102.577 8.4315 102.818 8.68741 103.029 8.95553H104.091L106.17 1.74247C104.028 1.05969 100.853 0.484602 97.5026 0.44852C89.7028 0.348046 83.3657 2.44913 78.9615 5.66486" fill="white"/>
<path fill-rule="evenodd" clip-rule="evenodd" d="M70.0292 6.66912C70.9446 6.66912 71.7045 6.99108 72.2147 7.41241C72.651 7.77045 72.9125 8.19622 72.9125 8.5637H73.9583L75.985 0.731689H48.4622L48.0603 2.26379L47.9654 2.63572C47.9654 2.63572 50.9785 2.96267 50.0554 5.87199L43.1848 29.9881L54.8704 30.0103H56.9198L57.44 27.9397C57.44 27.9397 54.8709 27.3408 55.5426 25.0482C55.5742 24.905 56.5418 21.4755 57.1197 19.4172C57.3778 18.5284 57.5615 17.889 57.5615 17.889L63.8509 17.8845C64.8795 17.8845 65.6677 18.0671 66.2773 18.2947C67.5368 18.761 68.0209 19.4682 68.0209 19.4682L69.846 12.3012H59.2424L60.3876 8.20788L60.8178 6.68078L70.0298 6.66856L70.0292 6.66912Z" fill="white"/>
<path fill-rule="evenodd" clip-rule="evenodd" d="M36.5882 25.6844C35.7739 24.8418 28.7024 14.1998 28.7024 14.1998L41.2078 4.52983L41.6225 4.20788C42.182 3.75602 42.7088 3.43627 43.1701 3.20424C44.4991 2.54421 45.355 2.63803 45.355 2.63803L45.8568 0.710693L29.7826 0.733461L29.3829 2.26056L29.2875 2.63803C30.3799 2.71131 31.9042 3.65499 30.658 4.77908C30.4948 4.91341 17.739 14.3308 17.739 14.3308L17.8389 13.9983L20.4912 4.71579C21.0519 2.86173 23.1135 2.63859 23.1135 2.63859L23.6176 0.729023L8.27221 0.733461L7.87808 2.26056L7.77706 2.63803C8.51091 2.82066 10.607 3.21367 9.88091 5.8743C4.75949 23.7565 5.34513 21.9863 4.99819 22.9605C3.8519 27.1993 2.13217 27.7827 1.09801 27.891C0.872635 27.9115 0.677788 27.9115 0.536235 27.9193L0.3253 28.7203L0 29.9876H16.0504L16.5861 27.8882C16.5861 27.8882 14.0392 27.4014 14.5244 25.6261C14.7714 24.7341 15.4148 22.4709 15.9821 20.4731C16.5328 18.5346 17.0207 16.836 17.0207 16.836C19.804 21.147 20.444 21.6804 23.8041 26.134C26.8955 30.2535 30.2 30.0609 38.1775 30.0087C38.8275 30.0043 39.5009 29.9987 40.2258 29.9987L40.756 27.9387C38.7337 27.9509 37.3948 26.5248 36.5871 25.6839" fill="white"/>
<path fill-rule="evenodd" clip-rule="evenodd" d="M110.582 1.23735C110.183 0.859873 109.711 0.671143 109.143 0.671143C108.587 0.671143 108.114 0.859318 107.714 1.23735C107.325 1.61482 107.125 2.07888 107.125 2.61956C107.125 3.16467 107.325 3.62654 107.714 4.01178C108.104 4.39036 108.586 4.58742 109.143 4.58742C109.71 4.58742 110.183 4.38925 110.582 4.01178C110.977 3.62654 111.176 3.16467 111.176 2.61956C111.181 2.07888 110.977 1.61482 110.582 1.23735ZM110.384 3.81915C110.047 4.15055 109.628 4.3193 109.145 4.3193C108.662 4.3193 108.252 4.15221 107.917 3.81915C107.58 3.49164 107.407 3.0914 107.407 2.61956C107.407 2.15771 107.58 1.75693 107.917 1.42998C108.258 1.09802 108.662 0.930925 109.145 0.930925C109.628 0.930925 110.037 1.09802 110.384 1.42998C110.72 1.75749 110.888 2.15771 110.888 2.61956C110.888 3.09029 110.72 3.49164 110.384 3.81915Z" fill="white"/>
<path fill-rule="evenodd" clip-rule="evenodd" d="M110.063 2.15646C110.063 1.88723 109.943 1.70572 109.721 1.61135C109.574 1.56527 109.385 1.54028 109.113 1.54028H108.334V3.68856H108.719V2.83925H109.027C109.241 2.83925 109.383 2.86422 109.474 2.9103C109.606 2.99356 109.68 3.15676 109.673 3.40489V3.57032L109.691 3.64358V3.66857L109.702 3.68966H110.063L110.058 3.65914C110.036 3.64359 110.036 3.60863 110.027 3.54978V3.23225C110.027 3.1229 109.985 3.00356 109.903 2.8942C109.829 2.78485 109.691 2.71157 109.524 2.68604C109.66 2.66494 109.766 2.63552 109.844 2.58223C109.984 2.48897 110.064 2.35019 110.064 2.15646H110.063ZM109.445 2.53337C109.367 2.5639 109.245 2.57389 109.084 2.57389H108.722V1.80008H109.053C109.273 1.79564 109.436 1.82562 109.536 1.87891C109.631 1.92887 109.683 2.03877 109.683 2.19642C109.681 2.35629 109.601 2.47009 109.445 2.53337Z" fill="white"/>
</svg>
